<svg preserveAspectRatio="none" width="100%" height="100%" overflow="visible" style="display: block;" viewBox="0 0 36.2071 38.7537" fill="none" xmlns="http://www.w3.org/2000/svg">
<g id="Group 17">
<path id="Vector" d="M18.8076 25.8815L15.6402 28.9111L22.7205 34.7074H5.95923V20.9855L11.8824 25.8359L15.0497 22.8063L1.18733 11.4515V38.7536H34.531L18.8076 25.8815Z" fill="var(--fill-0, #06021D)"/>
<path id="Vector_2" d="M36.2071 0.0129246V34.5656L36.0938 34.4797L34.7278 33.4782C34.358 33.2 34.006 32.9471 33.672 32.7094C33.165 32.3453 32.6818 31.9963 32.2166 31.6422L32.1748 31.6119L25.9475 26.4832L25.9296 26.4681L1.36028 6.2418L1.12082 0L3.04834 1.54307L19.0581 14.5822C23.1977 18.0367 27.4268 21.5518 31.2383 24.622V0.306279L36.2071 0.0129246Z" fill="var(--fill-0, #5436FD)"/>
</g>
</svg>
