<svg preserveAspectRatio="none" width="100%" height="100%" overflow="visible" style="display: block;" viewBox="0 0 19.0179 10.6687" fill="none" xmlns="http://www.w3.org/2000/svg">
<g id="Group 15">
<path id="Vector" d="M19.0179 3.75697C18.4642 4.34716 17.9334 4.91292 17.4171 5.46318C12.1631 1.34908 6.95402 1.35042 1.59994 5.56621C1.39072 5.32648 1.13971 5.01126 0.859363 4.72504C0.588132 4.44829 0.286788 4.20131 0 3.9424C5.01273 -1.23788 13.9678 -1.32675 19.0179 3.75697Z" fill="var(--fill-0, #5436FD)"/>
<path id="Vector_2" d="M4.37889 8.34948C3.84456 7.76799 3.31441 7.19102 2.78239 6.61207C6.18298 2.76095 12.7837 2.73719 16.2341 6.58159C15.6955 7.14986 15.1572 7.71779 14.6071 8.29824C11.2342 5.5365 7.82113 5.52432 4.37889 8.34948Z" fill="var(--fill-0, #5436FD)"/>
<path id="Vector_3" d="M5.56565 9.04577C7.8461 6.71835 12.0302 7.03307 13.915 9.09637C13.3772 9.60589 12.8397 10.1151 12.2922 10.6338C10.3659 9.35266 8.8647 9.35712 7.14608 10.6687C6.61827 10.1267 6.0929 9.58706 5.56565 9.04577Z" fill="var(--fill-0, #5436FD)"/>
</g>
</svg>
