<svg width="226" height="40" viewBox="0 0 226 40" fill="none" xmlns="http://www.w3.org/2000/svg">
<rect width="226" height="40" fill="#868686"/>
<g id="NumberCaller Home Page Redesign">
<rect width="1440" height="7062" transform="translate(-60 -32)" fill="#F6F6F7"/>
<g id="Frame 2147259524">
<g id="Frame 2147259515">
<rect width="1440" height="960" transform="translate(-60 -32)" fill="#F6F6F7"/>
<g id="Frame 35">
<g id="Group 19">
<g id="Frame 74">
<g id="Group 17">
<path id="Vector" d="M19.324 26.3125L16.1566 29.3421L23.2369 35.1384H6.47561V21.4165L12.3987 26.2669L15.5661 23.2373L1.70371 11.8825V39.1846H35.0474L19.324 26.3125Z" fill="#06021D"/>
<path id="Vector_2" d="M36.724 0.443924V34.9966L36.6106 34.9107L35.2447 33.9092C34.8748 33.631 34.5229 33.3781 34.1889 33.1404C33.6819 32.7763 33.1987 32.4273 32.7335 32.0732L32.6917 32.0429L26.4644 26.9142L26.4465 26.8991L1.87715 6.6728L1.6377 0.431L3.56521 1.97407L19.5749 15.0132C23.7146 18.4677 27.9437 21.9828 31.7552 25.0529V0.737278L36.724 0.443924Z" fill="#5436FD"/>
</g>
</g>
<g id="Group 18">
<g id="NumberCaller">
<path id="Vector_3" d="M220.683 22.8509L221.037 26.1229L220.955 25.6321C221.301 24.9232 221.773 24.3233 222.373 23.8325C222.973 23.3235 223.564 22.9327 224.145 22.6601C224.745 22.3874 225.2 22.2511 225.509 22.2511L225.318 26.0683C224.427 25.9593 223.664 26.1047 223.027 26.5046C222.391 26.9045 221.901 27.4316 221.555 28.086C221.21 28.7404 221.037 29.413 221.037 30.1037V34.7662H217.247V22.8509H220.683Z" fill="#06021D"/>
<path id="Vector_4" d="M208.037 35.0933C206.583 35.0933 205.347 34.8207 204.329 34.2753C203.329 33.73 202.566 32.9757 202.039 32.0123C201.512 31.0489 201.248 29.94 201.248 28.6858C201.248 27.4861 201.557 26.4045 202.175 25.4411C202.793 24.4777 203.62 23.7142 204.656 23.1507C205.692 22.5691 206.847 22.2782 208.119 22.2782C209.828 22.2782 211.227 22.7781 212.318 23.7779C213.427 24.7595 214.145 26.1864 214.472 28.0587L205.202 31.0034L204.356 28.9312L211.064 26.6681L210.273 27.0225C210.128 26.5499 209.864 26.1409 209.482 25.7956C209.119 25.432 208.564 25.2502 207.819 25.2502C207.256 25.2502 206.756 25.3866 206.32 25.6592C205.901 25.9137 205.574 26.2864 205.338 26.7771C205.12 27.2498 205.011 27.8133 205.011 28.4677C205.011 29.2129 205.147 29.8401 205.42 30.349C205.692 30.8398 206.065 31.2124 206.538 31.4669C207.01 31.7214 207.537 31.8487 208.119 31.8487C208.537 31.8487 208.937 31.7759 209.319 31.6305C209.719 31.4851 210.11 31.2942 210.491 31.0579L212.182 33.8936C211.546 34.2572 210.855 34.548 210.11 34.7661C209.382 34.9843 208.692 35.0933 208.037 35.0933Z" fill="#06021D"/>
<path id="Vector_5" d="M194.427 13.2532H198.244V34.7662H194.427V13.2532Z" fill="#06021D"/>
<path id="Vector_6" d="M186.678 13.2532H190.495V34.7662H186.678V13.2532Z" fill="#06021D"/>
<path id="Vector_7" d="M174.947 35.0934C173.838 35.0934 172.829 34.8753 171.92 34.4391C171.03 33.9846 170.321 33.2939 169.794 32.3668C169.266 31.4398 169.003 30.2582 169.003 28.8222C169.003 27.4771 169.276 26.3137 169.821 25.3321C170.366 24.3506 171.084 23.5962 171.975 23.0691C172.866 22.5237 173.811 22.2511 174.811 22.2511C175.992 22.2511 176.883 22.451 177.483 22.8509C178.101 23.2327 178.61 23.6598 179.01 24.1324L178.846 24.596L179.2 22.8509H182.745V34.7662H178.928V32.176L179.228 32.9939C179.191 32.9939 179.082 33.103 178.901 33.3211C178.719 33.5211 178.446 33.7665 178.083 34.0573C177.737 34.33 177.301 34.5663 176.774 34.7662C176.265 34.9844 175.656 35.0934 174.947 35.0934ZM176.038 31.9851C176.492 31.9851 176.901 31.9215 177.265 31.7942C177.628 31.6488 177.946 31.4489 178.219 31.1944C178.492 30.9217 178.728 30.5854 178.928 30.1855V27.268C178.782 26.8681 178.564 26.5319 178.273 26.2592C177.983 25.9684 177.637 25.7502 177.237 25.6048C176.837 25.4412 176.392 25.3594 175.901 25.3594C175.356 25.3594 174.847 25.5048 174.374 25.7957C173.92 26.0683 173.556 26.4501 173.284 26.9409C173.011 27.4316 172.875 27.9951 172.875 28.6314C172.875 29.2676 173.02 29.8402 173.311 30.3491C173.602 30.8581 173.984 31.258 174.456 31.5488C174.947 31.8397 175.474 31.9851 176.038 31.9851Z" fill="#06021D"/>
<path id="Vector_8" d="M166.596 33.1031C166.378 33.2849 165.969 33.5303 165.369 33.8393C164.788 34.1483 164.07 34.4209 163.215 34.6573C162.361 34.8936 161.416 35.0026 160.38 34.9845C158.798 34.9481 157.38 34.6663 156.126 34.1392C154.89 33.5939 153.836 32.8577 152.963 31.9306C152.109 31.0036 151.454 29.9402 151 28.7405C150.546 27.5408 150.318 26.2593 150.318 24.896C150.318 23.3691 150.546 21.9694 151 20.697C151.473 19.4246 152.136 18.3248 152.99 17.3978C153.863 16.4707 154.899 15.7527 156.099 15.2437C157.298 14.7348 158.625 14.4803 160.08 14.4803C161.425 14.4803 162.615 14.6621 163.652 15.0256C164.688 15.3892 165.533 15.78 166.187 16.1981L164.633 19.9335C164.179 19.5881 163.57 19.2337 162.806 18.8701C162.061 18.4884 161.198 18.2976 160.216 18.2976C159.453 18.2976 158.716 18.4611 158.007 18.7883C157.317 19.0974 156.699 19.5427 156.153 20.1244C155.626 20.7061 155.208 21.3877 154.899 22.1693C154.59 22.9328 154.436 23.769 154.436 24.6778C154.436 25.6412 154.572 26.5228 154.845 27.3227C155.135 28.1225 155.544 28.8132 156.072 29.3949C156.599 29.9584 157.226 30.3946 157.953 30.7037C158.698 31.0127 159.534 31.1672 160.461 31.1672C161.534 31.1672 162.452 30.9945 163.215 30.6491C163.979 30.3038 164.56 29.9402 164.96 29.5585L166.596 33.1031Z" fill="#06021D"/>
<path id="Vector_9" d="M143.171 22.8509L143.525 26.1229L143.444 25.6321C143.789 24.9232 144.262 24.3233 144.861 23.8325C145.461 23.3235 146.052 22.9327 146.634 22.6601C147.234 22.3874 147.688 22.2511 147.997 22.2511L147.806 26.0683C146.915 25.9593 146.152 26.1047 145.516 26.5046C144.88 26.9045 144.389 27.4316 144.043 28.086C143.698 28.7404 143.525 29.413 143.525 30.1037V34.7662H139.735V22.8509H143.171Z" fill="#06021D"/>
<path id="Vector_10" d="M130.527 35.0933C129.072 35.0933 127.836 34.8207 126.818 34.2753C125.819 33.73 125.055 32.9757 124.528 32.0123C124.001 31.0489 123.737 29.94 123.737 28.6858C123.737 27.4861 124.046 26.4045 124.664 25.4411C125.282 24.4777 126.109 23.7142 127.146 23.1507C128.182 22.5691 129.336 22.2782 130.608 22.2782C132.317 22.2782 133.717 22.7781 134.807 23.7779C135.916 24.7595 136.634 26.1864 136.961 28.0587L127.691 31.0034L126.846 28.9312L133.553 26.6681L132.762 27.0225C132.617 26.5499 132.353 26.1409 131.972 25.7956C131.608 25.432 131.054 25.2502 130.308 25.2502C129.745 25.2502 129.245 25.3866 128.809 25.6592C128.391 25.9137 128.064 26.2864 127.827 26.7771C127.609 27.2498 127.5 27.8133 127.5 28.4677C127.5 29.2129 127.636 29.8401 127.909 30.349C128.182 30.8398 128.554 31.2124 129.027 31.4669C129.5 31.7214 130.027 31.8487 130.608 31.8487C131.026 31.8487 131.426 31.7759 131.808 31.6305C132.208 31.4851 132.599 31.2942 132.981 31.0579L134.671 33.8936C134.035 34.2572 133.344 34.548 132.599 34.7661C131.872 34.9843 131.181 35.0933 130.527 35.0933Z" fill="#06021D"/>
<path id="Vector_11" d="M115.475 35.0934C114.475 35.0934 113.63 34.9298 112.939 34.6026C112.266 34.2572 111.676 33.8119 111.167 33.2665L111.467 32.4486V34.7662H107.649V13.2532H111.439V24.8958V23.6689C111.912 23.269 112.539 22.9327 113.321 22.66C114.102 22.3873 114.993 22.251 115.993 22.251C117.029 22.251 117.974 22.4964 118.829 22.9872C119.683 23.478 120.365 24.196 120.874 25.1412C121.401 26.0683 121.664 27.2044 121.664 28.5495C121.664 29.8946 121.373 31.058 120.792 32.0396C120.228 33.0212 119.474 33.7755 118.529 34.3027C117.583 34.8298 116.565 35.0934 115.475 35.0934ZM114.63 31.876C115.193 31.876 115.711 31.7306 116.184 31.4397C116.675 31.1489 117.065 30.749 117.356 30.24C117.647 29.731 117.792 29.1584 117.792 28.5222C117.792 27.886 117.647 27.3225 117.356 26.8317C117.065 26.3409 116.675 25.9592 116.184 25.6866C115.711 25.3957 115.193 25.2503 114.63 25.2503C114.139 25.2503 113.675 25.3321 113.239 25.4957C112.821 25.6411 112.457 25.8592 112.148 26.1501C111.857 26.4227 111.63 26.759 111.467 27.1589V30.0764C111.685 30.4763 111.939 30.8126 112.23 31.0853C112.539 31.3397 112.894 31.5397 113.294 31.6851C113.693 31.8124 114.139 31.876 114.63 31.876Z" fill="#06021D"/>
<path id="Vector_12" d="M87.5741 22.8509L87.8741 24.9504L87.8195 24.7868C88.2921 23.987 88.8829 23.369 89.5918 22.9327C90.3007 22.4783 91.1551 22.2511 92.1549 22.2511C92.8092 22.2511 93.3818 22.342 93.8726 22.5237C94.3816 22.7055 94.8088 22.9782 95.1541 23.3417C95.4995 23.6871 95.7358 24.1415 95.8631 24.705L95.7267 24.7323C96.2357 23.987 96.8446 23.3872 97.5536 22.9327C98.2807 22.4783 99.035 22.2511 99.8166 22.2511C100.998 22.2511 101.934 22.5874 102.625 23.2599C103.334 23.9143 103.698 24.7686 103.716 25.8229V34.7662H99.9257V27.4044C99.9075 26.8772 99.8257 26.4501 99.6803 26.1229C99.5349 25.7775 99.1986 25.5866 98.6715 25.5503C98.0534 25.5503 97.5263 25.7684 97.09 26.2047C96.6719 26.6227 96.3538 27.1681 96.1357 27.8406C95.9358 28.495 95.8358 29.1767 95.8358 29.8856V34.7662H92.0185V27.4044C92.0003 26.8772 91.9004 26.4501 91.7186 26.1229C91.555 25.7775 91.2096 25.5866 90.6825 25.5503C90.0826 25.5503 89.5737 25.7684 89.1556 26.2047C88.7557 26.6227 88.4466 27.159 88.2285 27.8134C88.0286 28.4678 87.9286 29.1403 87.9286 29.8311V34.7662H84.1113V22.8509H87.5741Z" fill="#06021D"/>
<path id="Vector_13" d="M72.032 35.3388C70.9596 35.3388 70.0598 35.0116 69.3327 34.3572C68.6056 33.6846 68.2239 32.8212 68.1875 31.7669V22.8509H72.0048V30.3491C72.0411 30.8762 72.1775 31.3034 72.4138 31.6306C72.6501 31.9396 73.05 32.0941 73.6135 32.0941C74.177 32.0941 74.6587 31.9032 75.0586 31.5215C75.4767 31.1398 75.7948 30.6217 76.0129 29.9673C76.2492 29.2948 76.3674 28.5404 76.3674 27.7042V22.8509H80.1846V34.7662H76.7218L76.4219 32.5849L76.4764 32.8303C76.2038 33.3211 75.8584 33.7573 75.4403 34.1391C75.0222 34.5208 74.5223 34.8116 73.9407 35.0116C73.3772 35.2297 72.741 35.3388 72.032 35.3388Z" fill="#06021D"/>
<path id="Vector_14" d="M63.5377 35.5841L48.3232 21.8419L49.4957 22.4963L49.5775 34.7661H45.5693V13.9075H45.7329L60.6203 27.5951L59.7477 27.2134L59.6659 14.6982H63.6468V35.5841H63.5377Z" fill="#06021D"/>
</g>
<g id="Group 15">
<path id="Vector_15" d="M176.898 10.7336C176.16 11.0677 175.454 11.3879 174.767 11.6993C171.481 5.8909 166.666 3.90326 160.108 5.75541C160.007 5.45395 159.895 5.06678 159.745 4.6952C159.6 4.33586 159.416 3.99253 159.25 3.64374C165.86 0.769836 174.171 4.10686 176.898 10.7336Z" fill="#5436FD"/>
<path id="Vector_16" d="M161.614 9.38885C161.342 8.6474 161.072 7.91171 160.802 7.1735C165.415 4.91253 171.525 7.4108 173.246 12.2813C172.531 12.6009 171.817 12.9203 171.087 13.2467C169.024 9.40642 165.874 8.09201 161.614 9.38885Z" fill="#5436FD"/>
<path id="Vector_17" d="M162.444 10.4855C165.441 9.20511 169.188 11.0935 170.142 13.7201C169.45 13.9857 168.759 14.2511 168.055 14.5215C166.764 12.6019 165.375 12.0329 163.285 12.5889C163.005 11.8865 162.725 11.1871 162.444 10.4855Z" fill="#5436FD"/>
</g>
</g>
</g>
</g>
</g>
</g>
</g>
</svg>
