<svg preserveAspectRatio="none" width="100%" height="100%" overflow="visible" style="display: block;" viewBox="0 0 179.939 22.3309" fill="none" xmlns="http://www.w3.org/2000/svg">
<g id="NumberCaller">
<path id="Vector" d="M175.113 9.59776L175.467 12.8697L175.385 12.3789C175.731 11.67 176.203 11.0701 176.803 10.5793C177.403 10.0704 177.994 9.67956 178.576 9.4069C179.175 9.13424 179.63 8.9979 179.939 8.9979L179.748 12.8152C178.857 12.7061 178.094 12.8515 177.458 13.2514C176.821 13.6513 176.331 14.1785 175.985 14.8329C175.64 15.4873 175.467 16.1598 175.467 16.8506V21.5131H171.677V9.59776H175.113Z" fill="var(--fill-0, #06021D)"/>
<path id="Vector_2" d="M162.468 21.8402C161.014 21.8402 159.778 21.5675 158.76 21.0222C157.76 20.4769 156.997 19.7225 156.469 18.7591C155.942 17.7957 155.679 16.6869 155.679 15.4326C155.679 14.2329 155.988 13.1513 156.606 12.1879C157.224 11.2245 158.051 10.4611 159.087 9.89758C160.123 9.31591 161.277 9.02507 162.55 9.02507C164.258 9.02507 165.658 9.52495 166.749 10.5247C167.858 11.5063 168.576 12.9332 168.903 14.8055L159.632 17.7502L158.787 15.678L165.495 13.4149L164.704 13.7694C164.558 13.2968 164.295 12.8878 163.913 12.5424C163.55 12.1789 162.995 11.9971 162.25 11.9971C161.686 11.9971 161.186 12.1334 160.75 12.4061C160.332 12.6606 160.005 13.0332 159.769 13.524C159.551 13.9966 159.441 14.5601 159.441 15.2145C159.441 15.9598 159.578 16.5869 159.85 17.0959C160.123 17.5866 160.496 17.9593 160.968 18.2138C161.441 18.4683 161.968 18.5955 162.55 18.5955C162.968 18.5955 163.368 18.5228 163.749 18.3774C164.149 18.2319 164.54 18.0411 164.922 17.8048L166.612 20.6405C165.976 21.004 165.285 21.2948 164.54 21.513C163.813 21.7311 163.122 21.8402 162.468 21.8402Z" fill="var(--fill-0, #06021D)"/>
<path id="Vector_3" d="M148.857 0H152.675V21.513H148.857V0Z" fill="var(--fill-0, #06021D)"/>
<path id="Vector_4" d="M141.108 0H144.926V21.513H141.108V0Z" fill="var(--fill-0, #06021D)"/>
<path id="Vector_5" d="M129.377 21.8403C128.269 21.8403 127.26 21.6221 126.351 21.1859C125.46 20.7315 124.751 20.0407 124.224 19.1137C123.697 18.1866 123.433 17.0051 123.433 15.5691C123.433 14.2239 123.706 13.0606 124.251 12.079C124.797 11.0974 125.515 10.343 126.405 9.81589C127.296 9.27057 128.241 8.9979 129.241 8.9979C130.423 8.9979 131.313 9.19786 131.913 9.59776C132.531 9.97949 133.04 10.4067 133.44 10.8793L133.277 11.3428L133.631 9.59776H137.176V21.5131H133.358V18.9228L133.658 19.7408C133.622 19.7408 133.513 19.8498 133.331 20.068C133.149 20.2679 132.877 20.5133 132.513 20.8042C132.168 21.0768 131.731 21.3131 131.204 21.5131C130.695 21.7312 130.086 21.8403 129.377 21.8403ZM130.468 18.7319C130.923 18.7319 131.332 18.6683 131.695 18.5411C132.059 18.3956 132.377 18.1957 132.649 17.9412C132.922 17.6686 133.158 17.3323 133.358 16.9324V14.0149C133.213 13.615 132.995 13.2787 132.704 13.006C132.413 12.7152 132.068 12.4971 131.668 12.3516C131.268 12.188 130.823 12.1062 130.332 12.1062C129.786 12.1062 129.277 12.2517 128.805 12.5425C128.35 12.8152 127.987 13.1969 127.714 13.6877C127.442 14.1785 127.305 14.742 127.305 15.3782C127.305 16.0144 127.451 16.587 127.741 17.096C128.032 17.6049 128.414 18.0048 128.887 18.2957C129.377 18.5865 129.905 18.7319 130.468 18.7319Z" fill="var(--fill-0, #06021D)"/>
<path id="Vector_6" d="M121.026 19.8499C120.808 20.0317 120.399 20.2771 119.799 20.5861C119.218 20.8951 118.5 21.1678 117.645 21.4041C116.791 21.6404 115.846 21.7495 114.81 21.7313C113.228 21.6949 111.81 21.4132 110.556 20.886C109.32 20.3407 108.266 19.6045 107.393 18.6775C106.539 17.7504 105.885 16.687 105.43 15.4873C104.976 14.2876 104.749 13.0061 104.749 11.6428C104.749 10.1159 104.976 8.71622 105.43 7.4438C105.903 6.17138 106.566 5.07164 107.421 4.14459C108.293 3.21754 109.329 2.49953 110.529 1.99056C111.729 1.4816 113.056 1.22711 114.51 1.22711C115.855 1.22711 117.046 1.40889 118.082 1.77243C119.118 2.13598 119.963 2.5268 120.617 2.94488L119.063 6.68035C118.609 6.33498 118 5.98052 117.236 5.61697C116.491 5.23524 115.628 5.04438 114.646 5.04438C113.883 5.04438 113.147 5.20797 112.438 5.53517C111.747 5.84418 111.129 6.28953 110.583 6.87121C110.056 7.45289 109.638 8.13454 109.329 8.91617C109.02 9.67963 108.866 10.5158 108.866 11.4247C108.866 12.3881 109.002 13.2697 109.275 14.0695C109.566 14.8693 109.975 15.56 110.502 16.1417C111.029 16.7052 111.656 17.1415 112.383 17.4505C113.128 17.7595 113.965 17.914 114.892 17.914C115.964 17.914 116.882 17.7413 117.645 17.396C118.409 17.0506 118.991 16.687 119.39 16.3053L121.026 19.8499Z" fill="var(--fill-0, #06021D)"/>
<path id="Vector_7" d="M97.6014 9.59776L97.9559 12.8697L97.8741 12.3789C98.2194 11.67 98.692 11.0701 99.2919 10.5793C99.8917 10.0704 100.483 9.67956 101.064 9.4069C101.664 9.13424 102.118 8.9979 102.428 8.9979L102.237 12.8152C101.346 12.7061 100.582 12.8515 99.9463 13.2514C99.3101 13.6513 98.8193 14.1785 98.4739 14.8329C98.1285 15.4873 97.9559 16.1598 97.9559 16.8506V21.5131H94.1659V9.59776H97.6014Z" fill="var(--fill-0, #06021D)"/>
<path id="Vector_8" d="M84.9566 21.8402C83.5024 21.8402 82.2663 21.5675 81.2484 21.0222C80.2486 20.4769 79.4852 19.7225 78.958 18.7591C78.4309 17.7957 78.1673 16.6869 78.1673 15.4326C78.1673 14.2329 78.4763 13.1513 79.0944 12.1879C79.7124 11.2245 80.5395 10.4611 81.5756 9.89758C82.6117 9.31591 83.766 9.02507 85.0384 9.02507C86.7471 9.02507 88.1467 9.52495 89.2374 10.5247C90.3462 11.5063 91.0642 12.9332 91.3914 14.8055L82.1209 17.7502L81.2757 15.678L87.9831 13.4149L87.1924 13.7694C87.047 13.2968 86.7834 12.8878 86.4017 12.5424C86.0382 12.1789 85.4838 11.9971 84.7385 11.9971C84.175 11.9971 83.6751 12.1334 83.2388 12.4061C82.8208 12.6606 82.4936 13.0332 82.2572 13.524C82.0391 13.9966 81.9301 14.5601 81.9301 15.2145C81.9301 15.9598 82.0664 16.5869 82.339 17.0959C82.6117 17.5866 82.9843 17.9593 83.457 18.2138C83.9296 18.4683 84.4567 18.5955 85.0384 18.5955C85.4565 18.5955 85.8564 18.5228 86.2381 18.3774C86.638 18.2319 87.0288 18.0411 87.4106 17.8048L89.1011 20.6405C88.4648 21.004 87.7741 21.2948 87.0288 21.513C86.3017 21.7311 85.611 21.8402 84.9566 21.8402Z" fill="var(--fill-0, #06021D)"/>
<path id="Vector_9" d="M69.9047 21.8402C68.9049 21.8402 68.0596 21.6766 67.3689 21.3494C66.6963 21.004 66.1056 20.5587 65.5966 20.0134L65.8965 19.1954V21.513H62.0793V0H65.8693V11.6427V10.4157C66.3419 10.0158 66.969 9.67949 67.7506 9.40683C68.5323 9.13417 69.423 8.99784 70.4227 8.99784C71.4588 8.99784 72.4041 9.24323 73.2584 9.73403C74.1127 10.2248 74.7944 10.9428 75.3034 11.8881C75.8305 12.8151 76.0941 13.9512 76.0941 15.2963C76.0941 16.6415 75.8032 17.8048 75.2216 18.7864C74.6581 19.768 73.9037 20.5223 72.9585 21.0495C72.0132 21.5766 70.9953 21.8402 69.9047 21.8402ZM69.0594 18.6228C69.6229 18.6228 70.141 18.4774 70.6136 18.1865C71.1044 17.8957 71.4952 17.4958 71.786 16.9868C72.0769 16.4779 72.2223 15.9053 72.2223 15.2691C72.2223 14.6329 72.0769 14.0693 71.786 13.5786C71.4952 13.0878 71.1044 12.706 70.6136 12.4334C70.141 12.1425 69.6229 11.9971 69.0594 11.9971C68.5686 11.9971 68.1051 12.0789 67.6688 12.2425C67.2508 12.3879 66.8872 12.6061 66.5782 12.8969C66.2873 13.1696 66.0601 13.5058 65.8965 13.9058V16.8232C66.1147 17.2231 66.3691 17.5594 66.66 17.8321C66.969 18.0866 67.3235 18.2865 67.7234 18.4319C68.1233 18.5592 68.5686 18.6228 69.0594 18.6228Z" fill="var(--fill-0, #06021D)"/>
<path id="Vector_10" d="M42.0045 9.59776L42.3044 11.6973L42.2499 11.5337C42.7225 10.7339 43.3132 10.1158 44.0222 9.67956C44.7311 9.22512 45.5854 8.9979 46.5852 8.9979C47.2396 8.9979 47.8122 9.08879 48.303 9.27057C48.8119 9.45234 49.2391 9.725 49.5845 10.0886C49.9298 10.4339 50.1661 10.8884 50.2934 11.4519L50.1571 11.4791C50.666 10.7339 51.275 10.134 51.9839 9.67956C52.711 9.22512 53.4654 8.9979 54.247 8.9979C55.4285 8.9979 56.3647 9.33419 57.0554 10.0068C57.7643 10.6611 58.1279 11.5155 58.146 12.5698V21.5131H54.3561V14.1512C54.3379 13.6241 54.2561 13.1969 54.1107 12.8697C53.9652 12.5243 53.629 12.3335 53.1018 12.2971C52.4838 12.2971 51.9566 12.5152 51.5204 12.9515C51.1023 13.3696 50.7842 13.9149 50.5661 14.5875C50.3661 15.2419 50.2661 15.9235 50.2661 16.6324V21.5131H46.4489V14.1512C46.4307 13.6241 46.3307 13.1969 46.1489 12.8697C45.9853 12.5243 45.64 12.3335 45.1128 12.2971C44.513 12.2971 44.004 12.5152 43.5859 12.9515C43.186 13.3696 42.877 13.9058 42.6589 14.5602C42.4589 15.2146 42.3589 15.8872 42.3589 16.5779V21.5131H38.5417V9.59776H42.0045Z" fill="var(--fill-0, #06021D)"/>
<path id="Vector_11" d="M26.4625 22.0856C25.3901 22.0856 24.4903 21.7584 23.7632 21.104C23.0361 20.4314 22.6544 19.568 22.618 18.5137V9.59768H26.4353V17.0959C26.4716 17.623 26.608 18.0502 26.8443 18.3774C27.0806 18.6864 27.4805 18.8409 28.044 18.8409C28.6075 18.8409 29.0892 18.65 29.4891 18.2683C29.9072 17.8866 30.2253 17.3685 30.4434 16.7141C30.6797 16.0416 30.7979 15.2872 30.7979 14.4511V9.59768H34.6151V21.513H31.1523L30.8524 19.3317L30.9069 19.5771C30.6343 20.0679 30.2889 20.5041 29.8708 20.8859C29.4527 21.2676 28.9528 21.5584 28.3712 21.7584C27.8077 21.9765 27.1715 22.0856 26.4625 22.0856Z" fill="var(--fill-0, #06021D)"/>
<path id="Vector_12" d="M17.9684 22.3309L2.75388 8.58876L3.92633 9.24314L4.00813 21.5129H0V0.654297H0.163597L15.0509 14.3419L14.1784 13.9602L14.0966 1.44502H18.0775V22.3309H17.9684Z" fill="var(--fill-0, #06021D)"/>
</g>
</svg>
