<svg width="142" height="39" viewBox="0 0 142 39" fill="none" xmlns="http://www.w3.org/2000/svg">
<rect width="142" height="39" fill="#868686"/>
<g id="NumberCaller Home Page Redesign">
<rect width="1440" height="7062" transform="translate(-385.962 -1281.89)" fill="#F6F6F7"/>
<g id="Frame 2147259524">
<g id="Frame 2147259513">
<g id="Frame 2147259512">
<g id="Frame 2147259507">
<g id="Frame 2147259509">
<mask id="path-1-inside-1_0_1" fill="white">
<path d="M-61.9619 -39.887H202.038V78.113H-61.9619V-39.887Z"/>
</mask>
<path d="M-61.9619 -39.887H202.038V78.113H-61.9619V-39.887Z" fill="white"/>
<path d="M202.038 78.113V79.113H203.038V78.113H202.038ZM202.038 -39.887H201.038V78.113H202.038H203.038V-39.887H202.038ZM202.038 78.113V77.113H-61.9619V78.113V79.113H202.038V78.113Z" fill="#CDCCD2" mask="url(#path-1-inside-1_0_1)"/>
<g id="Group 27">
<path id="Vector (Stroke)" d="M26.415 34.3485V22.7917C26.415 22.3441 26.4095 21.9791 26.4884 21.6236C26.5538 21.3289 26.6621 21.0454 26.8093 20.7818C26.987 20.4638 27.2335 20.1948 27.5309 19.8613L39.8222 6.07822C40.6491 5.15081 41.2256 4.50217 41.6055 3.99041C41.9994 3.45995 42.056 3.23462 42.0594 3.14868C42.0745 2.76603 41.9103 2.39916 41.6175 2.15658C41.5528 2.10312 41.3492 1.99478 40.6932 1.9356C40.0601 1.87853 39.1945 1.87784 37.9544 1.87784H5.98346C4.74338 1.87784 3.87772 1.87853 3.24464 1.9356C2.58872 1.99478 2.38505 2.10311 2.32039 2.15658C2.02759 2.39916 1.86333 2.76603 1.87844 3.14868C1.88184 3.23462 1.93849 3.45994 2.33231 3.99041C2.52221 4.24619 2.76089 4.53626 3.05576 4.87798L4.11571 6.07822L16.3959 19.8493L16.4069 19.8613C16.7043 20.1948 16.9508 20.4638 17.1285 20.7818C17.2758 21.0454 17.3841 21.3289 17.4495 21.6236C17.5283 21.9791 17.5228 22.3441 17.5228 22.7917V37.2872C17.5228 37.8057 17.1024 38.2261 16.5839 38.2261C16.0654 38.2261 15.645 37.8057 15.645 37.2872V22.7917C15.645 22.2627 15.6396 22.1388 15.6156 22.0307C15.5898 21.9141 15.5472 21.8018 15.4891 21.6978C15.4353 21.6015 15.3569 21.5057 15.005 21.111L2.71375 7.32797L1.63454 6.10481C1.31761 5.73728 1.04518 5.40789 0.823988 5.10996C0.395605 4.53291 0.0297559 3.91328 0.00243378 3.22295C-0.0357703 2.25692 0.37751 1.32744 1.12198 0.710608C1.65461 0.269347 2.36149 0.130468 3.07593 0.0660179C3.81366 -0.000501143 4.7808 1.12824e-07 5.98346 1.12824e-07H37.9544C39.1571 1.12824e-07 40.1242 -0.00050469 40.8619 0.0660179C41.5764 0.130468 42.2832 0.269345 42.8159 0.710608C43.5603 1.32744 43.9736 2.25693 43.9354 3.22295C43.9081 3.91327 43.5422 4.53292 43.1139 5.10996C42.6715 5.70576 42.0263 6.42843 41.2241 7.32797L28.9329 21.111C28.5808 21.5058 28.5026 21.6015 28.4488 21.6978C28.3907 21.8018 28.3481 21.9141 28.3222 22.0307C28.2983 22.1388 28.2929 22.2627 28.2929 22.7917V34.6208C28.2902 34.9024 28.2719 35.2078 28.1663 35.4919C27.9856 35.9779 27.4448 36.2255 26.9588 36.0448C26.4729 35.8641 26.2254 35.3241 26.4059 34.8381C26.3966 34.8633 26.4034 34.8634 26.4086 34.7849C26.4146 34.6945 26.415 34.5718 26.415 34.3485ZM24.8251 16.7373C25.3435 16.7375 25.764 17.1578 25.764 17.6763C25.7639 18.1946 25.3434 18.615 24.8251 18.6152H19.1146C18.5961 18.6152 18.1758 18.1947 18.1757 17.6763C18.1757 17.1577 18.596 16.7373 19.1146 16.7373H24.8251ZM27.6804 11.0075C28.1988 11.0077 28.6193 11.428 28.6193 11.9465C28.6192 12.4648 28.1987 12.8852 27.6804 12.8854H16.2593C15.7408 12.8854 15.3205 12.4649 15.3204 11.9465C15.3204 11.4279 15.7408 11.0075 16.2593 11.0075H27.6804ZM30.5357 5.27775C31.0541 5.27793 31.4746 5.69823 31.4746 6.21667C31.4744 6.73498 31.054 7.15542 30.5357 7.15559H13.404C12.8856 7.15559 12.4653 6.73509 12.4651 6.21667C12.4651 5.69812 12.8855 5.27775 13.404 5.27775H30.5357Z" fill="#1F1B34"/>
<g id="Funnel">
<path id="Vector" d="M141.169 6.91821V28.3147H137.651V6.91821H141.169Z" fill="#1F1B34" stroke="#1F1B34" stroke-width="0.262574"/>
<path id="Vector_2" d="M126.924 12.059C128.429 12.059 129.775 12.3868 130.958 13.0463C132.141 13.7056 133.063 14.637 133.722 15.8383C134.381 17.0218 134.71 18.387 134.71 19.9291C134.71 20.5246 134.671 21.0651 134.594 21.5492L134.576 21.6605H122.585C122.701 22.8215 123.149 23.7515 123.928 24.4594C124.739 25.1971 125.735 25.5667 126.924 25.5668C127.781 25.5668 128.505 25.3877 129.1 25.0355C129.693 24.6837 130.168 24.1549 130.52 23.4418L130.556 23.3685H134.331L134.274 23.5404C133.82 24.9217 133.016 26.0733 131.864 26.9935L131.629 27.1752C130.365 28.1089 128.793 28.5717 126.924 28.5717C125.4 28.5716 124.025 28.2332 122.805 27.5551L122.803 27.5541C121.602 26.8566 120.652 25.8872 119.955 24.6488L119.954 24.6469C119.276 23.3876 118.94 21.9377 118.939 20.3011C118.939 18.665 119.267 17.2243 119.926 15.9838V15.9828C120.603 14.7244 121.544 13.7546 122.747 13.0756L122.748 13.0746C123.969 12.3962 125.362 12.059 126.924 12.059ZM126.781 15.0629C125.689 15.0629 124.76 15.414 123.985 16.1146L123.983 16.1156C123.244 16.7673 122.788 17.6488 122.62 18.7699H131.043C130.996 17.6671 130.584 16.7866 129.809 16.1166C128.998 15.4161 127.991 15.0629 126.781 15.0629Z" fill="#1F1B34" stroke="#1F1B34" stroke-width="0.262574"/>
<path id="Vector_3" d="M109.546 12.059C110.802 12.059 111.927 12.3193 112.919 12.8441C113.933 13.3706 114.723 14.1518 115.287 15.183C115.852 16.2155 116.132 17.457 116.132 18.9017V28.3148H112.642V19.3871C112.642 17.999 112.295 16.9606 111.621 16.2504L111.62 16.2484C110.945 15.5186 110.021 15.1488 108.832 15.1488C107.643 15.1488 106.708 15.5182 106.014 16.2494L106.015 16.2504C105.341 16.9606 104.993 17.9989 104.993 19.3871V28.3148H101.476V12.3158H104.993V13.8988C105.5 13.3601 106.115 12.9317 106.837 12.6127L106.838 12.6117C107.692 12.2427 108.596 12.059 109.546 12.059Z" fill="#1F1B34" stroke="#1F1B34" stroke-width="0.262574"/>
<path id="Vector_4" d="M91 12.059C92.2556 12.059 93.3812 12.3193 94.373 12.8441C95.387 13.3706 96.177 14.1518 96.7412 15.183C97.3062 16.2155 97.5859 17.457 97.5859 18.9017V28.3148H94.0957V19.3871C94.0957 17.999 93.7489 16.9606 93.0752 16.2504L93.0742 16.2484C92.399 15.5186 91.4749 15.1488 90.2861 15.1488C89.0974 15.1488 88.1625 15.5182 87.4678 16.2494L87.4688 16.2504C86.795 16.9606 86.4473 17.9989 86.4473 19.3871V28.3148H82.9297V12.3158H86.4473V13.8988C86.9539 13.3601 87.5691 12.9317 88.291 12.6127L88.292 12.6117C89.1465 12.2427 90.0496 12.059 91 12.059Z" fill="#1F1B34" stroke="#1F1B34" stroke-width="0.262574"/>
<path id="Vector_5" d="M67.7295 12.316V21.2145C67.7295 22.6016 68.0757 23.6508 68.75 24.3805L68.8799 24.5094C69.542 25.1353 70.4245 25.4528 71.54 25.4528C72.7297 25.4527 73.6542 25.0919 74.3291 24.3805C75.0224 23.6507 75.3779 22.6015 75.3779 21.2145V12.316H78.8965V28.3141H75.3779V26.6813C74.8842 27.2191 74.27 27.6553 73.5361 27.9889H73.5352C72.6991 28.3583 71.8048 28.5426 70.8545 28.5426C69.5982 28.5426 68.4629 28.2822 67.4521 27.7574L67.4512 27.7565C66.4568 27.23 65.6678 26.4501 65.085 25.4205L65.084 25.4186C64.5191 24.3861 64.2402 23.1445 64.2402 21.6998V12.316H67.7295Z" fill="#1F1B34" stroke="#1F1B34" stroke-width="0.262574"/>
<path id="Vector_6" d="M61.6279 8.20349V11.1215H53.2021V16.7142H59.7715V19.6322H53.2021V28.3148H49.6846V8.20349H61.6279Z" fill="#1F1B34" stroke="#1F1B34" stroke-width="0.262574"/>
</g>
</g>
</g>
</g>
</g>
</g>
</g>
</g>
</svg>
