<svg width="173" height="42" viewBox="0 0 173 42" fill="none" xmlns="http://www.w3.org/2000/svg">
<rect width="173" height="42" fill="#868686"/>
<g id="NumberCaller Home Page Redesign">
<rect width="1440" height="7062" transform="translate(-634 -1280)" fill="#F6F6F7"/>
<g id="Frame 2147259524">
<g id="Frame 2147259513">
<g id="Frame 2147259512">
<g id="Frame 2147259507">
<g id="Frame 2147259503">
<mask id="path-1-inside-1_0_1" fill="white">
<path d="M-46 -38H218V80H-46V-38Z"/>
</mask>
<path d="M-46 -38H218V80H-46V-38Z" fill="white"/>
<path d="M218 80V81H219V80H218ZM218 -38H217V80H218H219V-38H218ZM218 80V79H-46V80V81H218V80Z" fill="#CDCCD2" mask="url(#path-1-inside-1_0_1)"/>
<g id="Group 28">
<path id="Icon (Stroke)" d="M29.9472 8.656V2.36231C22.8221 2.64697 16.3658 5.5234 11.4899 10.073L15.945 14.5281C16.401 14.9845 16.4013 15.7235 15.945 16.1798C15.4888 16.636 14.7498 16.6357 14.2934 16.1798L9.84476 11.7311C5.42562 16.5775 2.64225 22.9404 2.36231 29.9472H8.656C9.30141 29.9472 9.8252 30.471 9.8252 31.1164C9.82508 31.7617 9.30133 32.2856 8.656 32.2856H1.1692C0.523846 32.2856 0.000128385 31.7617 0 31.1164C0 13.9317 13.9317 0 31.1164 0C40.4128 6.94972e-05 48.7554 4.07894 54.457 10.5424C54.4647 10.5513 54.4734 10.5593 54.4809 10.5685C59.3049 16.0495 62.2328 23.2409 62.2328 31.1164C62.2327 31.7616 61.7088 32.2854 61.0636 32.2856H53.5768C52.9315 32.2856 52.4077 31.7617 52.4076 31.1164C52.4076 30.471 52.9314 29.9472 53.5768 29.9472H59.8705C59.6103 23.4347 57.1855 17.48 53.2965 12.7808L46.5681 16.384C45.9993 16.6884 45.2908 16.4744 44.986 15.9059C44.6817 15.3372 44.8959 14.6287 45.4641 14.3238L51.6818 10.9944C46.7113 5.91504 39.8793 2.66581 32.2856 2.36231V8.656C32.2856 9.30133 31.7617 9.82508 31.1164 9.8252C30.471 9.8252 29.9472 9.30141 29.9472 8.656Z" fill="#1F1B34"/>
<path id="Icon (Stroke)_2" d="M34.9343 14.3666C35.2463 13.9303 35.8155 13.7633 36.3143 13.9602C36.8134 14.1574 37.1153 14.6691 37.0445 15.2011L35.8558 24.1048H41.2649C41.5841 24.1048 41.9046 24.1028 42.1647 24.1266C42.3791 24.1462 42.7231 24.1928 43.0513 24.3939L43.1904 24.4895L43.3447 24.6242C43.6379 24.9075 43.8304 25.2793 43.8902 25.6826L43.9098 25.8847L43.9054 26.0542C43.8783 26.4382 43.7164 26.7463 43.6077 26.9322C43.4759 27.1575 43.2888 27.4183 43.1035 27.6776L34.1085 40.2672C33.7965 40.704 33.2276 40.8731 32.7285 40.6758C32.2297 40.4784 31.9298 39.9666 32.0004 39.4348L33.187 30.5311H27.78C27.4613 30.5311 27.1402 30.533 26.8803 30.5094C26.6354 30.487 26.2208 30.4288 25.8545 30.1464C25.4196 29.8108 25.1555 29.2981 25.1352 28.749C25.1182 28.2868 25.311 27.916 25.4351 27.7037C25.5669 27.4782 25.756 27.218 25.9415 26.9583L34.9343 14.3666ZM24.9787 33.6475C25.6238 33.6479 26.1457 34.1715 26.1457 34.8167C26.1457 35.4619 25.6238 35.9855 24.9787 35.9859H17.4789C16.8335 35.9858 16.3097 35.4621 16.3097 34.8167C16.3097 34.1713 16.8335 33.6476 17.4789 33.6475H24.9787ZM27.93 28.1949H34.5214C34.8582 28.1949 35.1796 28.3392 35.4016 28.5926C35.6235 28.846 35.7243 29.1844 35.6797 29.5184L34.9365 35.084L41.1128 26.4411H34.5214C34.1851 26.4409 33.8652 26.2961 33.6434 26.0434C33.4215 25.7899 33.3185 25.4515 33.3631 25.1176L34.1063 19.5476L27.93 28.1949ZM21.5689 26.1498C22.214 26.1498 22.7376 26.6718 22.7381 27.3169C22.7381 27.9623 22.2143 28.4861 21.5689 28.4861H15.4339C14.7884 28.4861 14.2646 27.9623 14.2646 27.3169C14.2651 26.6718 14.7887 26.1498 15.4339 26.1498H21.5689ZM24.9787 18.65C25.6238 18.6504 26.1457 19.174 26.1457 19.8192C26.1455 20.4642 25.6237 20.988 24.9787 20.9884H18.1613C17.516 20.9884 16.9923 20.4645 16.9921 19.8192C16.9921 19.1738 17.5158 18.65 18.1613 18.65H24.9787Z" fill="#1F1B34"/>
<g id="Text">
<path id="Vector" d="M153.91 24.6453C153.91 22.867 154.274 21.2923 155.003 19.921C155.753 18.5498 156.76 17.4892 158.024 16.7393C159.309 15.968 160.734 15.5824 162.298 15.5824C163.455 15.5824 164.591 15.8395 165.705 16.3537C166.84 16.8465 167.74 17.5107 168.404 18.3462V9.79749H172.1V33.5798H168.404V30.9123C167.805 31.7693 166.969 32.4764 165.898 33.0334C164.848 33.5905 163.637 33.869 162.266 33.869C160.723 33.869 159.309 33.4833 158.024 32.712C156.76 31.9193 155.753 30.8266 155.003 29.4339C154.274 28.0198 153.91 26.4237 153.91 24.6453ZM168.404 24.7096C168.404 23.4884 168.147 22.4278 167.633 21.5279C167.14 20.6281 166.487 19.9424 165.673 19.4711C164.859 18.9997 163.98 18.764 163.037 18.764C162.095 18.764 161.216 18.9997 160.402 19.4711C159.588 19.921 158.924 20.5959 158.41 21.4958C157.917 22.3742 157.67 23.4241 157.67 24.6453C157.67 25.8666 157.917 26.9379 158.41 27.8592C158.924 28.7805 159.588 29.4875 160.402 29.9803C161.238 30.4516 162.116 30.6873 163.037 30.6873C163.98 30.6873 164.859 30.4516 165.673 29.9803C166.487 29.5089 167.14 28.8233 167.633 27.9234C168.147 27.0021 168.404 25.9309 168.404 24.7096Z" fill="#1F1B34"/>
<path id="Vector_2" d="M151.526 24.2919C151.526 24.956 151.483 25.556 151.398 26.0916H137.868C137.975 27.5057 138.5 28.6412 139.442 29.4982C140.385 30.3553 141.542 30.7838 142.913 30.7838C144.884 30.7838 146.277 29.9589 147.091 28.3091H151.044C150.509 29.9375 149.534 31.2766 148.12 32.3264C146.727 33.3548 144.991 33.869 142.913 33.869C141.221 33.869 139.699 33.4941 138.35 32.7442C137.021 31.9729 135.971 30.9016 135.2 29.5304C134.45 28.1377 134.075 26.5308 134.075 24.7096C134.075 22.8885 134.439 21.2923 135.168 19.9211C135.918 18.5284 136.957 17.4571 138.285 16.7072C139.635 15.9573 141.178 15.5824 142.913 15.5824C144.584 15.5824 146.073 15.9466 147.38 16.6751C148.687 17.4036 149.705 18.432 150.434 19.7604C151.162 21.0673 151.526 22.5778 151.526 24.2919ZM147.702 23.1349C147.68 21.7851 147.198 20.7031 146.256 19.8889C145.313 19.0747 144.145 18.6677 142.753 18.6677C141.488 18.6677 140.406 19.0747 139.507 19.8889C138.607 20.6817 138.071 21.7636 137.9 23.1349H147.702Z" fill="#1F1B34"/>
<path id="Vector_3" d="M131.691 24.2919C131.691 24.956 131.648 25.556 131.563 26.0916H118.033C118.14 27.5057 118.665 28.6412 119.607 29.4982C120.55 30.3553 121.707 30.7838 123.078 30.7838C125.049 30.7838 126.442 29.9589 127.256 28.3091H131.209C130.674 29.9375 129.699 31.2766 128.285 32.3264C126.892 33.3548 125.157 33.869 123.078 33.869C121.386 33.869 119.864 33.4941 118.515 32.7442C117.186 31.9729 116.136 30.9016 115.365 29.5304C114.615 28.1377 114.24 26.5308 114.24 24.7096C114.24 22.8885 114.604 21.2923 115.333 19.9211C116.083 18.5284 117.122 17.4571 118.45 16.7072C119.8 15.9573 121.343 15.5824 123.078 15.5824C124.749 15.5824 126.239 15.9466 127.545 16.6751C128.852 17.4036 129.87 18.432 130.599 19.7604C131.327 21.0673 131.691 22.5778 131.691 24.2919ZM127.867 23.1349C127.845 21.7851 127.363 20.7031 126.421 19.8889C125.478 19.0747 124.31 18.6677 122.918 18.6677C121.653 18.6677 120.571 19.0747 119.672 19.8889C118.772 20.6817 118.236 21.7636 118.065 23.1349H127.867Z" fill="#1F1B34"/>
<path id="Vector_4" d="M97.3434 18.4748C97.9648 17.6607 98.8111 16.9751 99.8824 16.418C100.954 15.8609 102.164 15.5824 103.514 15.5824C105.057 15.5824 106.46 15.9681 107.724 16.7394C109.01 17.4893 110.017 18.5498 110.745 19.9211C111.474 21.2923 111.838 22.8671 111.838 24.6454C111.838 26.4237 111.474 28.0199 110.745 29.434C110.017 30.8266 109.01 31.9193 107.724 32.7121C106.46 33.4834 105.057 33.869 103.514 33.869C102.164 33.869 100.964 33.6012 99.9145 33.0656C98.8647 32.5085 98.0076 31.8229 97.3434 31.0087V42H93.6797V15.8716H97.3434V18.4748ZM108.11 24.6454C108.11 23.4241 107.853 22.3743 107.338 21.4958C106.846 20.596 106.181 19.9211 105.346 19.4711C104.532 18.9998 103.653 18.7641 102.711 18.7641C101.789 18.7641 100.911 18.9998 100.075 19.4711C99.261 19.9425 98.5968 20.6281 98.0826 21.528C97.5898 22.4278 97.3434 23.4884 97.3434 24.7097C97.3434 25.9309 97.5898 27.0022 98.0826 27.9235C98.5968 28.8233 99.261 29.509 100.075 29.9803C100.911 30.4517 101.789 30.6874 102.711 30.6874C103.653 30.6874 104.532 30.4517 105.346 29.9803C106.181 29.4875 106.846 28.7805 107.338 27.8592C107.853 26.9379 108.11 25.8666 108.11 24.6454Z" fill="#1F1B34"/>
<path id="Vector_5" d="M81.6433 33.8047C80.1435 33.8047 78.7937 33.5476 77.5939 33.0334C76.3941 32.4978 75.4513 31.7479 74.7657 30.7837C74.0801 29.8196 73.7373 28.6948 73.7373 27.4092H77.6582C77.7439 28.3734 78.1188 29.1661 78.783 29.7875C79.4686 30.4088 80.4221 30.7195 81.6433 30.7195C82.9074 30.7195 83.893 30.4195 84.6 29.8196C85.3071 29.1983 85.6606 28.4055 85.6606 27.4414C85.6606 26.6915 85.4356 26.0809 84.9857 25.6095C84.5572 25.1381 84.0108 24.7739 83.3466 24.5168C82.7039 24.2597 81.804 23.9812 80.647 23.6812C79.1901 23.2955 78.001 22.9099 77.0797 22.5242C76.1798 22.1171 75.4085 21.4958 74.7657 20.6602C74.123 19.8246 73.8016 18.7105 73.8016 17.3178C73.8016 16.0323 74.123 14.9075 74.7657 13.9433C75.4085 12.9792 76.3084 12.24 77.4653 11.7258C78.6223 11.2116 79.9614 10.9545 81.4826 10.9545C83.6466 10.9545 85.4142 11.5008 86.7854 12.5935C88.1781 13.6648 88.9494 15.1431 89.0994 17.0286H85.05C84.9857 16.2144 84.6 15.5181 83.893 14.9396C83.1859 14.3611 82.2539 14.0719 81.097 14.0719C80.0471 14.0719 79.1901 14.3397 78.5259 14.8753C77.8617 15.411 77.5296 16.1823 77.5296 17.1893C77.5296 17.8749 77.7332 18.4427 78.1402 18.8926C78.5687 19.3211 79.1044 19.6639 79.7471 19.921C80.3899 20.1781 81.2684 20.4567 82.3825 20.7566C83.8608 21.1637 85.0607 21.5708 85.982 21.9779C86.9247 22.385 87.7174 23.017 88.3602 23.874C89.0244 24.7096 89.3565 25.8345 89.3565 27.2485C89.3565 28.3841 89.0458 29.4554 88.4245 30.4624C87.8246 31.4694 86.9354 32.2835 85.757 32.9049C84.6 33.5048 83.2288 33.8047 81.6433 33.8047Z" fill="#1F1B34"/>
</g>
</g>
</g>
</g>
</g>
</g>
</g>
</g>
</svg>
