<svg width="191" height="41" viewBox="0 0 191 41" fill="none" xmlns="http://www.w3.org/2000/svg">
<rect width="191" height="41" fill="#868686"/>
<g id="NumberCaller Home Page Redesign">
<rect width="1440" height="7062" transform="translate(-889 -1163)" fill="#F6F6F7"/>
<g id="Frame 2147259524">
<g id="Frame 2147259513">
<g id="Frame 2147259512">
<g id="Frame 2147259506">
<g id="Frame 2147259508">
<mask id="path-1-inside-1_0_1" fill="white">
<path d="M-37 -39H227V79H-37V-39Z"/>
</mask>
<path d="M-37 -39H227V79H-37V-39Z" fill="white"/>
<path d="M227 -39H228V-40H227V-39ZM227 79V80H228V79H227ZM-37 -39V-38H227V-39V-40H-37V-39ZM227 -39H226V79H227H228V-39H227ZM227 79V78H-37V79V80H227V79Z" fill="#CDCCD2" mask="url(#path-1-inside-1_0_1)"/>
<g id="Group 24">
<g id="cloud blank">
<path id="Icon" d="M15.9179 32.7709C8.86612 32.7709 3.1495 27.0542 3.1495 20.0024C3.1495 12.9506 8.86612 7.23397 15.9179 7.23397C20.8256 7.23397 25.5368 9.19179 27.224 14.0634C27.4261 14.0504 27.6298 14.0438 27.8352 14.0438C33.0065 14.0438 37.1987 18.236 37.1987 23.4073C37.1987 28.5787 33.0065 32.7709 27.8352 32.7709C23.4913 32.7709 20.3824 32.7709 15.9179 32.7709Z" stroke="#1F1B34" stroke-width="1.31287" stroke-linecap="round" stroke-linejoin="round"/>
</g>
<g id="Text">
<path id="Vector" d="M184.053 15.1514C185.27 15.1514 186.356 15.4042 187.311 15.9098C188.285 16.4154 189.044 17.1645 189.587 18.1571C190.148 19.1496 190.429 20.3481 190.429 21.7527V30.8821H187.255V22.2302C187.255 20.8444 186.909 19.7863 186.216 19.056C185.523 18.3069 184.577 17.9323 183.379 17.9323C182.18 17.9323 181.225 18.3069 180.513 19.056C179.821 19.7863 179.474 20.8444 179.474 22.2302V30.8821H176.3V22.2302C176.3 20.8444 175.953 19.7863 175.26 19.056C174.568 18.3069 173.622 17.9323 172.423 17.9323C171.225 17.9323 170.27 18.3069 169.558 19.056C168.865 19.7863 168.519 20.8444 168.519 22.2302V30.8821H165.316V15.4042H168.519V17.1739C169.043 16.5372 169.708 16.0409 170.513 15.6851C171.318 15.3293 172.18 15.1514 173.097 15.1514C174.333 15.1514 175.438 15.4135 176.412 15.9379C177.386 16.4623 178.135 17.2207 178.659 18.2132C179.128 17.2769 179.858 16.5372 180.85 15.9941C181.843 15.4323 182.91 15.1514 184.053 15.1514Z" fill="#1F1B34"/>
<path id="Vector_2" d="M157.737 17.6514C158.205 16.8649 158.823 16.2563 159.59 15.8255C160.377 15.3761 161.304 15.1514 162.371 15.1514V18.4661H161.557C160.302 18.4661 159.347 18.7844 158.692 19.4211C158.055 20.0579 157.737 21.1627 157.737 22.7358V30.8821H154.534V15.4042H157.737V17.6514Z" fill="#1F1B34"/>
<path id="Vector_3" d="M143.334 31.1349C141.873 31.1349 140.553 30.8072 139.373 30.1517C138.193 29.4776 137.266 28.5412 136.592 27.3427C135.918 26.1254 135.581 24.7209 135.581 23.1291C135.581 21.556 135.928 20.1609 136.62 18.9436C137.313 17.7263 138.259 16.79 139.458 16.1345C140.656 15.4791 141.995 15.1514 143.475 15.1514C144.954 15.1514 146.293 15.4791 147.491 16.1345C148.69 16.79 149.636 17.7263 150.329 18.9436C151.022 20.1609 151.368 21.556 151.368 23.1291C151.368 24.7022 151.012 26.0973 150.301 27.3146C149.589 28.5318 148.615 29.4776 147.379 30.1517C146.162 30.8072 144.813 31.1349 143.334 31.1349ZM143.334 28.3539C144.158 28.3539 144.926 28.1573 145.637 27.764C146.368 27.3708 146.958 26.7809 147.407 25.9943C147.857 25.2078 148.081 24.2527 148.081 23.1291C148.081 22.0055 147.866 21.0598 147.435 20.2919C147.005 19.5054 146.433 18.9155 145.722 18.5222C145.01 18.129 144.242 17.9323 143.418 17.9323C142.594 17.9323 141.827 18.129 141.115 18.5222C140.422 18.9155 139.87 19.5054 139.458 20.2919C139.046 21.0598 138.84 22.0055 138.84 23.1291C138.84 24.7958 139.261 26.088 140.104 27.0056C140.965 27.9045 142.042 28.3539 143.334 28.3539Z" fill="#1F1B34"/>
<path id="Vector_4" d="M133.783 18.0165H130.918V30.882H127.687V18.0165H125.861V15.4041H127.687V14.3085C127.687 12.5295 128.155 11.2373 129.092 10.432C130.047 9.60804 131.536 9.19604 133.558 9.19604V11.8646C132.584 11.8646 131.901 12.0519 131.508 12.4265C131.114 12.7823 130.918 13.4096 130.918 14.3085V15.4041H133.783V18.0165Z" fill="#1F1B34"/>
<path id="Vector_5" d="M107.188 23.0729C107.188 21.5186 107.507 20.1422 108.144 18.9436C108.799 17.7451 109.679 16.8181 110.784 16.1627C111.908 15.4885 113.153 15.1514 114.52 15.1514C115.531 15.1514 116.524 15.3761 117.498 15.8256C118.49 16.2563 119.277 16.8368 119.857 17.5672V10.0951H123.088V30.8821H119.857V28.5506C119.333 29.2997 118.603 29.9177 117.666 30.4046C116.749 30.8915 115.691 31.1349 114.492 31.1349C113.144 31.1349 111.908 30.7978 110.784 30.1237C109.679 29.4308 108.799 28.4757 108.144 27.2584C107.507 26.0224 107.188 24.6273 107.188 23.0729ZM119.857 23.1291C119.857 22.0617 119.633 21.1347 119.183 20.3481C118.752 19.5616 118.181 18.9623 117.47 18.5504C116.758 18.1384 115.99 17.9324 115.166 17.9324C114.342 17.9324 113.574 18.1384 112.863 18.5504C112.151 18.9436 111.571 19.5335 111.121 20.3201C110.69 21.0879 110.475 22.0055 110.475 23.0729C110.475 24.1404 110.69 25.0767 111.121 25.882C111.571 26.6873 112.151 27.3052 112.863 27.736C113.593 28.148 114.361 28.354 115.166 28.354C115.99 28.354 116.758 28.148 117.47 27.736C118.181 27.324 118.752 26.7247 119.183 25.9382C119.633 25.1329 119.857 24.1966 119.857 23.1291Z" fill="#1F1B34"/>
<path id="Vector_6" d="M104.03 15.4042V30.8821H100.827V29.0562C100.322 29.6929 99.657 30.1985 98.833 30.5731C98.0277 30.9289 97.1663 31.1068 96.2486 31.1068C95.0314 31.1068 93.9358 30.854 92.962 30.3484C92.007 29.8427 91.2485 29.0936 90.6867 28.1011C90.1436 27.1086 89.8721 25.91 89.8721 24.5055V15.4042H93.0463V24.028C93.0463 25.4138 93.3928 26.4812 94.0857 27.2303C94.7786 27.9607 95.7243 28.3258 96.9228 28.3258C98.1213 28.3258 99.0671 27.9607 99.76 27.2303C100.472 26.4812 100.827 25.4138 100.827 24.028V15.4042H104.03Z" fill="#1F1B34"/>
<path id="Vector_7" d="M78.8145 31.1349C77.3538 31.1349 76.0336 30.8072 74.8538 30.1517C73.6739 29.4776 72.747 28.5412 72.0728 27.3427C71.3986 26.1254 71.0615 24.7209 71.0615 23.1291C71.0615 21.556 71.408 20.1609 72.1009 18.9436C72.7938 17.7263 73.7395 16.79 74.938 16.1345C76.1366 15.4791 77.4755 15.1514 78.955 15.1514C80.4344 15.1514 81.7734 15.4791 82.9719 16.1345C84.1705 16.79 85.1162 17.7263 85.8091 18.9436C86.502 20.1609 86.8484 21.556 86.8484 23.1291C86.8484 24.7022 86.4926 26.0973 85.781 27.3146C85.0694 28.5318 84.0955 29.4776 82.8596 30.1517C81.6423 30.8072 80.294 31.1349 78.8145 31.1349ZM78.8145 28.3539C79.6385 28.3539 80.4063 28.1573 81.1179 27.764C81.8483 27.3708 82.4382 26.7809 82.8877 25.9943C83.3371 25.2078 83.5618 24.2527 83.5618 23.1291C83.5618 22.0055 83.3465 21.0598 82.9157 20.2919C82.485 19.5054 81.9138 18.9155 81.2022 18.5222C80.4906 18.129 79.7228 17.9323 78.8988 17.9323C78.0748 17.9323 77.307 18.129 76.5954 18.5222C75.9025 18.9155 75.35 19.5054 74.938 20.2919C74.526 21.0598 74.32 22.0055 74.32 23.1291C74.32 24.7958 74.7414 26.088 75.5841 27.0056C76.4455 27.9045 77.5224 28.3539 78.8145 28.3539Z" fill="#1F1B34"/>
<path id="Vector_8" d="M67.8967 10.0951V30.8821H64.6943V10.0951H67.8967Z" fill="#1F1B34"/>
<path id="Vector_9" d="M41.8994 21.0785C41.8994 19.1683 42.3395 17.4548 43.2197 15.9379C44.1186 14.421 45.3265 13.2412 46.8434 12.3985C48.379 11.537 50.055 11.1063 51.8716 11.1063C53.9503 11.1063 55.7949 11.6213 57.4054 12.6513C59.0347 13.6626 60.2145 15.1045 60.9448 16.9773H57.0964C56.5908 15.9473 55.8885 15.1795 54.9896 14.6738C54.0907 14.1682 53.0514 13.9154 51.8716 13.9154C50.5794 13.9154 49.4277 14.2057 48.4164 14.7862C47.4052 15.3667 46.6093 16.2001 46.0287 17.2862C45.4669 18.3724 45.186 19.6365 45.186 21.0785C45.186 22.5205 45.4669 23.7845 46.0287 24.8707C46.6093 25.9569 47.4052 26.7996 48.4164 27.3989C49.4277 27.9794 50.5794 28.2697 51.8716 28.2697C53.0514 28.2697 54.0907 28.0168 54.9896 27.5112C55.8885 27.0056 56.5908 26.2378 57.0964 25.2078H60.9448C60.2145 27.0805 59.0347 28.5225 57.4054 29.5337C55.7949 30.545 53.9503 31.0506 51.8716 31.0506C50.0363 31.0506 48.3602 30.6293 46.8434 29.7866C45.3265 28.9251 44.1186 27.7359 43.2197 26.2191C42.3395 24.7022 41.8994 22.9886 41.8994 21.0785Z" fill="#1F1B34"/>
</g>
</g>
</g>
</g>
</g>
</g>
</g>
</g>
</svg>
