<svg width="142" height="34" viewBox="0 0 142 34" fill="none" xmlns="http://www.w3.org/2000/svg">
<rect width="142" height="34" fill="#868686"/>
<g id="NumberCaller Home Page Redesign">
<rect width="1440" height="7062" transform="translate(-913 -1284)" fill="#F6F6F7"/>
<g id="Frame 2147259524">
<g id="Frame 2147259513">
<g id="Frame 2147259512">
<g id="Frame 2147259507">
<g id="Frame 2147259508">
<mask id="path-1-inside-1_0_1" fill="white">
<path d="M-61 -42H203V76H-61V-42Z"/>
</mask>
<path d="M-61 -42H203V76H-61V-42Z" fill="white"/>
<path d="M203 76V77H204V76H203ZM203 -42H202V76H203H204V-42H203ZM203 76V75H-61V76V77H203V76Z" fill="#CDCCD2" mask="url(#path-1-inside-1_0_1)"/>
<g id="Group 29">
<path id="Icon (Stroke)" d="M22.0242 29.2547C22.0484 29.7515 22.0626 30.0649 22.0547 30.3021C22.0473 30.5274 22.0198 30.5958 22.0106 30.6162C21.948 30.7548 21.8431 30.8708 21.7111 30.9463C21.6911 30.9577 21.6245 30.9899 21.4027 31.0189C21.1673 31.0497 20.8541 31.066 20.3572 31.0902L15.5491 31.324C15.0521 31.3482 14.739 31.3623 14.5017 31.3545C14.2762 31.3471 14.2081 31.3214 14.1878 31.3122C14.0489 31.2498 13.9333 31.1447 13.8576 31.0127C13.8465 30.9933 13.8125 30.9279 13.7832 30.7044C13.7524 30.4691 13.7379 30.1557 13.7138 29.6589L13.4799 24.8508C13.4574 24.3865 13.4372 23.9776 13.3933 23.6427C13.348 23.2961 13.2675 22.9407 13.0735 22.6019C12.7886 22.1043 12.3534 21.7094 11.8305 21.4742C11.4745 21.314 11.1129 21.2684 10.7636 21.2569C10.426 21.2458 10.0172 21.2653 9.55283 21.2879L4.74473 21.5217C4.2479 21.5459 3.93458 21.5619 3.69739 21.5541C3.47209 21.5467 3.40368 21.5191 3.38335 21.51C3.24456 21.4474 3.12882 21.3426 3.05318 21.2104C3.0421 21.1911 3.00991 21.1258 2.98063 20.9021C2.94983 20.6667 2.93354 20.3537 2.90936 19.8566L2.67553 15.0485C2.65137 14.5517 2.63724 14.2383 2.64501 14.0011C2.65238 13.7775 2.67791 13.7082 2.68729 13.6871C2.7497 13.5484 2.8549 13.4327 2.98684 13.357C3.00619 13.3459 3.07166 13.3118 3.29512 13.2826C3.53043 13.2518 3.84373 13.2355 4.34057 13.2113L9.14867 12.9775C9.61295 12.9549 10.0219 12.9365 10.3568 12.8927C10.7034 12.8474 11.0587 12.765 11.3975 12.5711C11.8951 12.2861 12.2901 11.851 12.5253 11.3281C12.6851 10.9723 12.7311 10.612 12.7426 10.263C12.7538 9.92537 12.7342 9.51658 12.7116 9.0522L12.4778 4.24411C12.4536 3.7471 12.4376 3.43403 12.4454 3.19676C12.4528 2.97163 12.4803 2.90324 12.4895 2.88272C12.552 2.74381 12.657 2.6283 12.7891 2.55255C12.8084 2.54147 12.8736 2.50744 13.0974 2.47815C13.3327 2.44735 13.6458 2.43106 14.1428 2.40688L18.9509 2.17305C19.4477 2.14889 19.7611 2.13477 19.9984 2.14253C20.2232 2.14994 20.2918 2.17742 20.3124 2.18667C20.4514 2.24918 20.5668 2.35397 20.6426 2.48621C20.6536 2.50558 20.6877 2.57063 20.717 2.79449C20.7477 3.02989 20.7641 3.34289 20.7882 3.83994C20.815 4.38998 21.2831 4.81467 21.8331 4.78792C22.3828 4.76082 22.806 4.29293 22.7793 3.74311C22.7567 3.27869 22.7383 2.86991 22.6945 2.53494C22.6492 2.18877 22.5684 1.8345 22.3748 1.496C22.0899 0.998243 21.6547 0.601751 21.1317 0.366438C20.7756 0.206303 20.4141 0.160644 20.0648 0.149133C19.7271 0.138013 19.3185 0.159437 18.8541 0.182023L14.046 0.415856C13.5822 0.438413 13.1744 0.456784 12.8397 0.500513C12.4933 0.545843 12.1376 0.626575 11.7989 0.820324C11.301 1.10527 10.9065 1.54201 10.6713 2.06518C10.5113 2.42103 10.4635 2.78124 10.452 3.13033C10.4409 3.46797 10.4623 3.87661 10.4849 4.34103L10.7187 9.14912C10.7429 9.64625 10.7571 9.95928 10.7492 10.1966C10.7419 10.4211 10.7162 10.4898 10.707 10.5105C10.6444 10.6496 10.5379 10.765 10.4056 10.8408C10.3856 10.8521 10.3204 10.8861 10.0991 10.9151C9.86371 10.9459 9.54912 10.9623 9.05184 10.9864L4.24374 11.2203C3.77991 11.2428 3.3721 11.2612 3.03742 11.3049C2.6909 11.3503 2.33546 11.4308 1.99663 11.6247C1.49901 11.9095 1.10425 12.3449 0.868919 12.8677C0.708797 13.2238 0.663129 13.5854 0.651614 13.9347C0.640493 14.2723 0.660065 14.681 0.682651 15.1454L0.916485 19.9535C0.939042 20.4174 0.959256 20.8251 1.00299 21.1598C1.04834 21.5063 1.12889 21.8617 1.3228 22.2006C1.60769 22.6983 2.0428 23.093 2.56581 23.3283C2.92189 23.4884 3.2835 23.5359 3.63281 23.5474C3.97014 23.5585 4.37786 23.5372 4.84166 23.5146L9.64975 23.2808C10.147 23.2566 10.4617 23.2424 10.699 23.2502C10.9205 23.2575 10.9897 23.283 11.0111 23.2926C11.1502 23.3551 11.2675 23.4615 11.3433 23.5939C11.3548 23.6143 11.3869 23.6807 11.4157 23.9004C11.4465 24.1358 11.4629 24.4504 11.4871 24.9477L11.7209 29.7558C11.7435 30.2196 11.7618 30.6274 11.8056 30.9621C11.8509 31.3087 11.9333 31.664 12.1272 32.0028C12.4122 32.5005 12.8472 32.8953 13.3702 33.1305C13.7263 33.2906 14.0878 33.3363 14.4371 33.3478C14.7745 33.3589 15.1822 33.3394 15.6461 33.3169L20.4542 33.083C20.9186 33.0605 21.3273 33.0403 21.6622 32.9964C22.0088 32.9511 22.3642 32.8705 22.703 32.6766C23.2006 32.3917 23.5956 31.9565 23.8308 31.4336C23.9909 31.0776 24.0366 30.716 24.0481 30.3667C24.0591 30.0294 24.0378 29.6217 24.0153 29.1579C23.9885 28.608 23.522 28.1834 22.9722 28.2098C22.4221 28.2366 21.9975 28.7046 22.0242 29.2547Z" fill="#1F1B34"/>
<g id="Text">
<path id="Vector" d="M126.443 18.4003C126.443 16.883 126.754 15.5393 127.376 14.3693C128.016 13.1993 128.875 12.2944 129.953 11.6546C131.05 10.9964 132.266 10.6674 133.6 10.6674C134.588 10.6674 135.557 10.8867 136.507 11.3255C137.476 11.746 138.244 12.3127 138.811 13.0256V5.73145H141.964V26.0236H138.811V23.7476C138.299 24.4788 137.586 25.0821 136.672 25.5574C135.776 26.0327 134.743 26.2704 133.573 26.2704C132.257 26.2704 131.05 25.9413 129.953 25.2832C128.875 24.6068 128.016 23.6745 127.376 22.4862C126.754 21.2796 126.443 19.9177 126.443 18.4003ZM138.811 18.4552C138.811 17.4131 138.591 16.5082 138.152 15.7404C137.732 14.9726 137.174 14.3876 136.48 13.9854C135.785 13.5832 135.036 13.3821 134.231 13.3821C133.427 13.3821 132.677 13.5832 131.983 13.9854C131.288 14.3693 130.721 14.9452 130.282 15.713C129.862 16.4625 129.652 17.3583 129.652 18.4003C129.652 19.4424 129.862 20.3564 130.282 21.1425C130.721 21.9286 131.288 22.5319 131.983 22.9523C132.696 23.3545 133.445 23.5556 134.231 23.5556C135.036 23.5556 135.785 23.3545 136.48 22.9523C137.174 22.5502 137.732 21.9652 138.152 21.1973C138.591 20.4113 138.811 19.4972 138.811 18.4552Z" fill="#1F1B34"/>
<path id="Vector_2" d="M121.846 8.91252C121.279 8.91252 120.804 8.72057 120.42 8.33666C120.036 7.95276 119.844 7.47745 119.844 6.91073C119.844 6.34401 120.036 5.8687 120.42 5.48479C120.804 5.10089 121.279 4.90894 121.846 4.90894C122.394 4.90894 122.86 5.10089 123.244 5.48479C123.628 5.8687 123.82 6.34401 123.82 6.91073C123.82 7.47745 123.628 7.95276 123.244 8.33666C122.86 8.72057 122.394 8.91252 121.846 8.91252ZM123.381 10.9143V26.0237H120.255V10.9143H123.381Z" fill="#1F1B34"/>
<path id="Vector_3" d="M112.626 22.1297H104.646L103.275 26.0236H100.012L106.84 6.93799H110.459L117.287 26.0236H113.997L112.626 22.1297ZM111.748 19.5794L108.65 10.7222L105.524 19.5794H111.748Z" fill="#1F1B34"/>
<path id="Vector_4" d="M87.4564 13.4645V21.8281C87.4564 22.3949 87.5844 22.8062 87.8403 23.0621C88.1146 23.2998 88.5716 23.4186 89.2114 23.4186H91.131V26.0237H88.663C87.2553 26.0237 86.1768 25.6946 85.4272 25.0365C84.6777 24.3784 84.3029 23.3089 84.3029 21.8281V13.4645H82.5205V10.9143H84.3029V7.15747H87.4564V10.9143H91.131V13.4645H87.4564Z" fill="#1F1B34"/>
<path id="Vector_5" d="M74.6459 26.2705C73.4576 26.2705 72.3882 26.0603 71.4375 25.6398C70.5052 25.201 69.7648 24.616 69.2164 23.8848C68.6679 23.1353 68.3754 22.3035 68.3389 21.3894H71.5746C71.6295 22.0293 71.9311 22.5685 72.4796 23.0073C73.0463 23.4278 73.7501 23.638 74.591 23.638C75.4685 23.638 76.1449 23.4735 76.6203 23.1444C77.1138 22.7971 77.3606 22.3583 77.3606 21.8282C77.3606 21.2614 77.0864 20.841 76.538 20.5668C76.0078 20.2925 75.1578 19.9909 73.9878 19.6618C72.8543 19.3511 71.9311 19.0494 71.2182 18.7569C70.5052 18.4644 69.8836 18.0165 69.3535 17.4132C68.8416 16.81 68.5857 16.0147 68.5857 15.0275C68.5857 14.2232 68.8233 13.4919 69.2986 12.8338C69.7739 12.1574 70.4503 11.6272 71.3278 11.2433C72.2236 10.8594 73.2474 10.6675 74.3991 10.6675C76.1175 10.6675 77.4978 11.1062 78.5398 11.9837C79.6001 12.8429 80.1668 14.0221 80.2399 15.5211H77.1138C77.059 14.8447 76.7848 14.3054 76.2912 13.9033C75.7976 13.5011 75.1303 13.3 74.2894 13.3C73.4667 13.3 72.836 13.4554 72.3973 13.7661C71.9585 14.0769 71.7392 14.4883 71.7392 15.0001C71.7392 15.4023 71.8854 15.7405 72.1779 16.0147C72.4704 16.289 72.8269 16.5083 73.2474 16.6729C73.6678 16.8191 74.2894 17.0111 75.1121 17.2487C76.2089 17.5412 77.1047 17.8429 77.7994 18.1536C78.5124 18.4461 79.1248 18.8849 79.6367 19.4699C80.1485 20.0549 80.4136 20.8318 80.4319 21.8007C80.4319 22.66 80.1942 23.4278 79.7189 24.1042C79.2436 24.7806 78.5672 25.3107 77.6897 25.6946C76.8305 26.0785 75.8159 26.2705 74.6459 26.2705Z" fill="#1F1B34"/>
<path id="Vector_6" d="M49.5342 18.4004C49.5342 16.8831 49.845 15.5394 50.4665 14.3694C51.1064 13.1994 51.9656 12.2945 53.0442 11.6547C54.141 10.9965 55.3476 10.6675 56.6639 10.6675C57.8521 10.6675 58.885 10.9051 59.7625 11.3804C60.6583 11.8375 61.3713 12.4133 61.9014 13.108V10.9143H65.0549V26.0237H61.9014V23.7751C61.3713 24.4881 60.6492 25.0822 59.7351 25.5575C58.821 26.0328 57.779 26.2705 56.609 26.2705C55.311 26.2705 54.1228 25.9414 53.0442 25.2833C51.9656 24.6069 51.1064 23.6746 50.4665 22.4863C49.845 21.2797 49.5342 19.9178 49.5342 18.4004ZM61.9014 18.4553C61.9014 17.4132 61.682 16.5083 61.2433 15.7405C60.8228 14.9727 60.2652 14.3877 59.5706 13.9855C58.8759 13.5833 58.1263 13.3822 57.322 13.3822C56.5176 13.3822 55.7681 13.5833 55.0734 13.9855C54.3787 14.3694 53.812 14.9453 53.3732 15.7131C52.9528 16.4626 52.7425 17.3584 52.7425 18.4004C52.7425 19.4425 52.9528 20.3565 53.3732 21.1426C53.812 21.9287 54.3787 22.532 55.0734 22.9525C55.7864 23.3546 56.5359 23.5557 57.322 23.5557C58.1263 23.5557 58.8759 23.3546 59.5706 22.9525C60.2652 22.5503 60.8228 21.9653 61.2433 21.1975C61.682 20.4114 61.9014 19.4973 61.9014 18.4553Z" fill="#1F1B34"/>
<path id="Vector_7" d="M47.6784 6.96558V9.5158H39.589V15.1373H45.896V17.6875H39.589V26.0237H36.4629V6.96558H47.6784Z" fill="#1F1B34"/>
</g>
<path id="Icon (Stroke)_2" d="M25.9077 5.13766C26.2612 4.84713 26.7672 4.83481 27.1348 5.10747C27.5026 5.38031 27.6367 5.86816 27.4608 6.29098L24.5165 13.3672L28.9746 14.5617C29.2375 14.6321 29.5024 14.7013 29.7114 14.7783C29.8839 14.8419 30.1571 14.9563 30.3831 15.1944L30.4766 15.304L30.574 15.4491C30.7826 15.7965 30.8506 16.2129 30.7596 16.6122C30.6716 16.9973 30.4303 17.2617 30.2811 17.4093C30.1227 17.566 29.911 17.7394 29.7009 17.9123L19.5072 26.3019C19.1537 26.5929 18.6475 26.6066 18.2796 26.3339C17.9119 26.0611 17.7779 25.5731 17.9537 25.1504L20.8979 18.0742L16.4398 16.8796C16.1769 16.8092 15.912 16.74 15.703 16.663C15.506 16.5904 15.1772 16.4512 14.9378 16.1374C14.6536 15.7647 14.5509 15.2842 14.6553 14.8273C14.7434 14.4426 14.9842 14.1796 15.1333 14.032C15.2918 13.8753 15.5033 13.702 15.7135 13.529L25.9077 5.13766ZM17.0811 14.9878L22.5136 16.4434C22.7912 16.5178 23.0242 16.7076 23.1511 16.9655C23.278 17.2234 23.2864 17.5247 23.1759 17.79L21.3343 22.2129L28.3315 16.4531L22.9009 14.998C22.6233 14.9236 22.3902 14.7336 22.2633 14.4758C22.1364 14.2179 22.128 13.9167 22.2385 13.6514L24.0788 9.22615L17.0811 14.9878Z" fill="#1F1B34"/>
</g>
</g>
</g>
</g>
</g>
</g>
</g>
</svg>
