<svg width="191" height="30" viewBox="0 0 191 30" fill="none" xmlns="http://www.w3.org/2000/svg">
<rect width="191" height="30" fill="#868686"/>
<g id="NumberCaller Home Page Redesign">
<rect width="1440" height="7062" transform="translate(-96.9443 -1168.1)" fill="#F6F6F7"/>
<g id="Frame 2147259524">
<g id="Frame 2147259513">
<g id="Frame 2147259512">
<g id="Frame 2147259506">
<g id="Frame 2147259510">
<path d="M-20.9443 -43.5952H226.556V73.4048H-36.4443V-28.0952C-36.4443 -31.8806 -36.4436 -34.6697 -36.1562 -36.8071C-35.8708 -38.93 -35.3112 -40.3358 -34.248 -41.3989C-33.1849 -42.4621 -31.7791 -43.0217 -29.6562 -43.3071C-27.5188 -43.5945 -24.7297 -43.5952 -20.9443 -43.5952Z" fill="white"/>
<path d="M-20.9443 -43.5952H226.556V73.4048H-36.4443V-28.0952C-36.4443 -31.8806 -36.4436 -34.6697 -36.1562 -36.8071C-35.8708 -38.93 -35.3112 -40.3358 -34.248 -41.3989C-33.1849 -42.4621 -31.7791 -43.0217 -29.6562 -43.3071C-27.5188 -43.5945 -24.7297 -43.5952 -20.9443 -43.5952Z" stroke="#CDCCD2"/>
<g id="Group 21">
<g id="Text">
<path id="Vector" d="M172.908 19.1084C172.908 17.4419 173.266 15.9662 173.981 14.6812C174.717 13.3962 175.706 12.4023 176.947 11.6996C178.209 10.9768 179.608 10.6154 181.143 10.6154C182.279 10.6154 183.394 10.8563 184.487 11.3382C185.602 11.8 186.486 12.4224 187.138 13.2054V5.19434H190.766V27.4809H187.138V24.9812C186.549 25.7843 185.728 26.4469 184.677 26.9689C183.646 27.4909 182.458 27.7519 181.111 27.7519C179.597 27.7519 178.209 27.3905 176.947 26.6677C175.706 25.9248 174.717 24.9009 173.981 23.5958C173.266 22.2706 172.908 20.7748 172.908 19.1084ZM187.138 19.1686C187.138 18.0242 186.885 17.0303 186.381 16.187C185.897 15.3437 185.255 14.7013 184.456 14.2595C183.657 13.8178 182.794 13.597 181.869 13.597C180.943 13.597 180.081 13.8178 179.282 14.2595C178.482 14.6812 177.83 15.3136 177.325 16.1569C176.842 16.9801 176.6 17.9639 176.6 19.1084C176.6 20.2528 176.842 21.2567 177.325 22.1201C177.83 22.9834 178.482 23.646 179.282 24.1078C180.102 24.5495 180.964 24.7704 181.869 24.7704C182.794 24.7704 183.657 24.5495 184.456 24.1078C185.255 23.6661 185.897 23.0236 186.381 22.1803C186.885 21.3169 187.138 20.313 187.138 19.1686Z" fill="#1F1B34"/>
<path id="Vector_2" d="M170.567 18.7771C170.567 19.3995 170.525 19.9616 170.441 20.4636H157.158C157.263 21.7887 157.778 22.8529 158.704 23.656C159.629 24.4591 160.765 24.8607 162.111 24.8607C164.046 24.8607 165.413 24.0877 166.213 22.5417H170.094C169.568 24.0676 168.611 25.3225 167.222 26.3063C165.855 27.27 164.151 27.7519 162.111 27.7519C160.449 27.7519 158.956 27.4005 157.631 26.6978C156.327 25.975 155.296 24.9711 154.539 23.6861C153.803 22.381 153.435 20.8752 153.435 19.1686C153.435 17.4619 153.792 15.9661 154.507 14.6811C155.243 13.3761 156.264 12.3722 157.568 11.6694C158.893 10.9667 160.407 10.6154 162.111 10.6154C163.752 10.6154 165.214 10.9567 166.497 11.6393C167.78 12.322 168.779 13.2857 169.494 14.5306C170.209 15.7553 170.567 17.1708 170.567 18.7771ZM166.812 17.6928C166.791 16.4279 166.318 15.414 165.392 14.651C164.467 13.8881 163.321 13.5066 161.953 13.5066C160.712 13.5066 159.65 13.8881 158.767 14.651C157.883 15.3939 157.357 16.4078 157.189 17.6928H166.812Z" fill="#1F1B34"/>
<path id="Vector_3" d="M147.089 13.6875V22.8732C147.089 23.4956 147.237 23.9474 147.531 24.2285C147.847 24.4895 148.372 24.62 149.109 24.62H151.317V27.4811H148.478C146.858 27.4811 145.617 27.1197 144.755 26.3969C143.892 25.6741 143.461 24.4995 143.461 22.8732V13.6875H141.41V10.8866H143.461V6.76062H147.089V10.8866H151.317V13.6875H147.089Z" fill="#1F1B34"/>
<path id="Vector_4" d="M122.775 19.1686C122.775 17.4619 123.133 15.9661 123.848 14.6811C124.584 13.3761 125.594 12.3722 126.877 11.6694C128.16 10.9667 129.632 10.6154 131.294 10.6154C133.398 10.6154 135.133 11.0972 136.5 12.061C137.888 13.0046 138.824 14.3599 139.308 16.1268H135.427C135.112 15.3036 134.607 14.6611 133.913 14.1993C133.219 13.7375 132.346 13.5066 131.294 13.5066C129.822 13.5066 128.644 14.0085 127.76 15.0124C126.898 15.9963 126.467 17.3816 126.467 19.1686C126.467 20.9555 126.898 22.3509 127.76 23.3548C128.644 24.3587 129.822 24.8607 131.294 24.8607C133.377 24.8607 134.754 23.9873 135.427 22.2405H139.308C138.803 23.927 137.857 25.2723 136.469 26.2762C135.08 27.26 133.356 27.7519 131.294 27.7519C129.632 27.7519 128.16 27.4005 126.877 26.6978C125.594 25.975 124.584 24.9711 123.848 23.6861C123.133 22.381 122.775 20.8752 122.775 19.1686Z" fill="#1F1B34"/>
<path id="Vector_5" d="M120.436 18.7771C120.436 19.3995 120.394 19.9616 120.31 20.4636H107.027C107.132 21.7887 107.647 22.8529 108.573 23.656C109.498 24.4591 110.634 24.8607 111.98 24.8607C113.915 24.8607 115.283 24.0877 116.082 22.5417H119.963C119.437 24.0676 118.48 25.3225 117.092 26.3063C115.724 27.27 114.021 27.7519 111.98 27.7519C110.319 27.7519 108.825 27.4005 107.5 26.6978C106.196 25.975 105.165 24.9711 104.408 23.6861C103.672 22.381 103.304 20.8752 103.304 19.1686C103.304 17.4619 103.661 15.9661 104.376 14.6811C105.113 13.3761 106.133 12.3722 107.437 11.6694C108.762 10.9667 110.277 10.6154 111.98 10.6154C113.621 10.6154 115.083 10.9567 116.366 11.6393C117.649 12.322 118.648 13.2857 119.363 14.5306C120.078 15.7553 120.436 17.1708 120.436 18.7771ZM116.681 17.6928C116.66 16.4279 116.187 15.414 115.262 14.651C114.336 13.8881 113.19 13.5066 111.823 13.5066C110.581 13.5066 109.519 13.8881 108.636 14.651C107.752 15.3939 107.227 16.4078 107.058 17.6928H116.681Z" fill="#1F1B34"/>
<path id="Vector_6" d="M96.9595 13.6875V22.8732C96.9595 23.4956 97.1067 23.9474 97.4012 24.2285C97.7167 24.4895 98.2426 24.62 98.9787 24.62H101.187V27.4811H98.3477C96.7281 27.4811 95.4871 27.1197 94.6247 26.3969C93.7623 25.6741 93.3311 24.4995 93.3311 22.8732V13.6875H91.2803V10.8866H93.3311V6.76062H96.9595V10.8866H101.187V13.6875H96.9595Z" fill="#1F1B34"/>
<path id="Vector_7" d="M80.1817 27.7519C78.5411 27.7519 77.0582 27.4005 75.733 26.6978C74.4079 25.975 73.3667 24.9711 72.6095 23.6861C71.8522 22.381 71.4736 20.8752 71.4736 19.1686C71.4736 17.482 71.8628 15.9862 72.641 14.6811C73.4193 13.3761 74.4815 12.3722 75.8277 11.6694C77.1739 10.9667 78.6778 10.6154 80.3395 10.6154C82.0012 10.6154 83.5051 10.9667 84.8513 11.6694C86.1975 12.3722 87.2597 13.3761 88.038 14.6811C88.8162 15.9862 89.2053 17.482 89.2053 19.1686C89.2053 20.8551 88.8057 22.3509 88.0064 23.656C87.2071 24.9611 86.1133 25.975 84.7251 26.6978C83.3579 27.4005 81.8434 27.7519 80.1817 27.7519ZM80.1817 24.7703C81.1072 24.7703 81.9696 24.5595 82.7689 24.1379C83.5892 23.7162 84.2518 23.0838 84.7566 22.2405C85.2615 21.3972 85.5139 20.3732 85.5139 19.1686C85.5139 17.9639 85.272 16.95 84.7882 16.1268C84.3044 15.2835 83.6629 14.651 82.8636 14.2294C82.0643 13.8078 81.2019 13.5969 80.2764 13.5969C79.3509 13.5969 78.4885 13.8078 77.6892 14.2294C76.9109 14.651 76.2904 15.2835 75.8277 16.1268C75.3649 16.95 75.1336 17.9639 75.1336 19.1686C75.1336 20.9555 75.6068 22.3409 76.5534 23.3247C77.5209 24.2885 78.7304 24.7703 80.1817 24.7703Z" fill="#1F1B34"/>
<path id="Vector_8" d="M64.131 13.2958C64.6569 12.4525 65.351 11.8 66.2134 11.3382C67.0968 10.8563 68.138 10.6154 69.3369 10.6154V14.1692H68.422C67.0127 14.1692 65.9399 14.5105 65.2037 15.1931C64.4886 15.8758 64.131 17.0604 64.131 18.7469V27.4809H60.5342V10.8864H64.131V13.2958Z" fill="#1F1B34"/>
<path id="Vector_9" d="M57.1043 12.7838C57.1043 13.8479 56.8414 14.8518 56.3156 15.7955C55.7897 16.7391 54.9483 17.5121 53.7915 18.1145C52.6346 18.6967 51.1517 18.9879 49.3428 18.9879H45.3673V27.4808H41.7705V6.54956H49.3428C51.0255 6.54956 52.4453 6.83065 53.6022 7.39284C54.7801 7.93494 55.653 8.67783 56.2209 9.62149C56.8099 10.5652 57.1043 11.6192 57.1043 12.7838ZM49.3428 16.187C50.71 16.187 51.7301 15.8959 52.4032 15.3136C53.0763 14.7113 53.4129 13.868 53.4129 12.7838C53.4129 10.4949 52.0562 9.35044 49.3428 9.35044H45.3673V16.187H49.3428Z" fill="#1F1B34"/>
</g>
<g id="Icon">
<path d="M20.6627 0.393921H30.7973V10.0679" fill="#1F1B34"/>
<path d="M10.5281 29.4157H0.393555L0.393555 19.7418" fill="#1F1B34"/>
<path d="M30.7973 18.1295V21.6766C30.7973 24.3855 30.7973 25.74 30.245 26.7747C29.7592 27.6848 28.984 28.4248 28.0305 28.8885C26.9466 29.4157 25.5276 29.4157 22.6897 29.4157H18.9736M12.2172 0.393921H8.50123C5.66328 0.393921 4.2443 0.393921 3.16035 0.921119C2.20687 1.38485 1.43168 2.12482 0.945857 3.03495C0.393555 4.06963 0.393555 5.42411 0.393555 8.13306V11.6802M23.0725 7.76761L30.7973 0.393921M30.7973 10.0679V0.393921H20.6627M5.86624 24.1918L0.393555 29.4157M0.393555 19.7418L0.393555 29.4157H10.5281" stroke="#696777" stroke-width="0.787722" stroke-linecap="round" stroke-linejoin="round"/>
</g>
<g id="Icon_2">
<path d="M14.4472 22.2967C17.7738 22.2967 20.4706 19.6774 20.4706 16.4462C20.4706 13.2151 17.7738 10.5958 14.4472 10.5958C11.1206 10.5958 8.42383 13.2151 8.42383 16.4462C8.42383 19.6774 11.1206 22.2967 14.4472 22.2967Z" fill="#1F1B34"/>
<path d="M10.2317 12.2673H10.1448V10.5958C10.1448 8.28783 12.0711 6.41687 14.4472 6.41687C16.8234 6.41687 18.7496 8.28783 18.7496 10.5958V12.2673H18.6627M14.4472 15.6105V17.282M20.4706 16.4462C20.4706 19.6774 17.7738 22.2967 14.4472 22.2967C11.1206 22.2967 8.42383 19.6774 8.42383 16.4462C8.42383 13.2151 11.1206 10.5958 14.4472 10.5958C17.7738 10.5958 20.4706 13.2151 20.4706 16.4462Z" stroke="#696777" stroke-width="0.525148" stroke-linecap="round" stroke-linejoin="round"/>
</g>
</g>
</g>
</g>
</g>
</g>
</g>
</g>
</svg>
