<svg width="179" height="46" viewBox="0 0 179 46" fill="none" xmlns="http://www.w3.org/2000/svg">
<rect width="179" height="46" fill="#868686"/>
<g id="NumberCaller Home Page Redesign">
<rect width="1440" height="7062" transform="translate(-367 -1160)" fill="#F6F6F7"/>
<g id="Frame 2147259524">
<g id="Frame 2147259513">
<g id="Frame 2147259512">
<g id="Frame 2147259506">
<g id="Frame 2147259509">
<mask id="path-1-inside-1_0_1" fill="white">
<path d="M-43 -36H221V82H-43V-36Z"/>
</mask>
<path d="M-43 -36H221V82H-43V-36Z" fill="white"/>
<path d="M221 -36H222V-37H221V-36ZM221 82V83H222V82H221ZM-43 -36V-35H221V-36V-37H-43V-36ZM221 -36H220V82H221H222V-36H221ZM221 82V81H-43V82V83H221V82Z" fill="#CDCCD2" mask="url(#path-1-inside-1_0_1)"/>
<g id="Group 22">
<path id="Icon" d="M37.8129 28.7707C37.5394 29.3905 37.4578 30.0781 37.5786 30.7448C37.6995 31.4114 38.0173 32.0266 38.4911 32.5109L38.6144 32.6342C38.9965 33.0159 39.2997 33.4692 39.5065 33.9682C39.7134 34.4671 39.8198 35.002 39.8198 35.5421C39.8198 36.0822 39.7134 36.6171 39.5065 37.116C39.2997 37.615 38.9965 38.0683 38.6144 38.45C38.2327 38.8321 37.7794 39.1353 37.2804 39.3421C36.7815 39.549 36.2466 39.6554 35.7065 39.6554C35.1664 39.6554 34.6315 39.549 34.1326 39.3421C33.6336 39.1353 33.1803 38.8321 32.7986 38.45L32.6753 38.3267C32.191 37.8529 31.5758 37.5351 30.9092 37.4142C30.2425 37.2934 29.5549 37.375 28.9351 37.6485C28.3273 37.909 27.8089 38.3416 27.4438 38.8929C27.0786 39.4443 26.8827 40.0904 26.8801 40.7516V41.101C26.8801 42.1911 26.447 43.2365 25.6762 44.0073C24.9054 44.7781 23.86 45.2111 22.77 45.2111C21.6799 45.2111 20.6345 44.7781 19.8637 44.0073C19.0929 43.2365 18.6599 42.1911 18.6599 41.101V40.916C18.6439 40.2358 18.4238 39.5761 18.0279 39.0227C17.6321 38.4693 17.079 38.0478 16.4404 37.8129C15.8206 37.5394 15.133 37.4578 14.4663 37.5786C13.7997 37.6995 13.1845 38.0173 12.7002 38.4911L12.5769 38.6144C12.1952 38.9965 11.7419 39.2997 11.2429 39.5065C10.744 39.7134 10.2091 39.8198 9.66901 39.8198C9.12888 39.8198 8.59404 39.7134 8.09509 39.5065C7.59613 39.2997 7.14283 38.9965 6.76111 38.6144C6.37897 38.2327 6.07582 37.7794 5.86898 37.2804C5.66214 36.7815 5.55568 36.2466 5.55568 35.7065C5.55568 35.1664 5.66214 34.6315 5.86898 34.1326C6.07582 33.6336 6.37897 33.1803 6.76111 32.7986L6.88442 32.6753C7.35818 32.191 7.67599 31.5758 7.79687 30.9092C7.91775 30.2425 7.83614 29.5549 7.56258 28.9351C7.30208 28.3273 6.86953 27.8089 6.31818 27.4438C5.76683 27.0786 5.12075 26.8827 4.45946 26.8801H4.1101C3.02003 26.8801 1.97461 26.447 1.20382 25.6762C0.433027 24.9054 0 23.86 0 22.77C0 21.6799 0.433027 20.6345 1.20382 19.8637C1.97461 19.0929 3.02003 18.6599 4.1101 18.6599H4.29505C4.97526 18.6439 5.63496 18.4238 6.18837 18.0279C6.74179 17.6321 7.16332 17.079 7.39818 16.4404C7.67174 15.8206 7.75334 15.133 7.63247 14.4663C7.51159 13.7997 7.19378 13.1845 6.72001 12.7002L6.59671 12.5769C6.21457 12.1952 5.91141 11.7419 5.70457 11.2429C5.49774 10.744 5.39127 10.2091 5.39127 9.66901C5.39127 9.12888 5.49774 8.59405 5.70457 8.09509C5.91141 7.59613 6.21457 7.14283 6.59671 6.76111C6.97843 6.37897 7.43172 6.07582 7.93068 5.86898C8.42964 5.66214 8.96448 5.55568 9.50461 5.55568C10.0447 5.55568 10.5796 5.66214 11.0785 5.86898C11.5775 6.07582 12.0308 6.37897 12.4125 6.76111L12.5358 6.88442C13.0201 7.35818 13.6353 7.67599 14.3019 7.79687C14.9686 7.91774 15.6562 7.83614 16.276 7.56258H16.4404C17.0482 7.30208 17.5666 6.86953 17.9317 6.31818C18.2969 5.76683 18.4928 5.12075 18.4954 4.45946V4.1101C18.4954 3.02003 18.9285 1.97461 19.6993 1.20382C20.4701 0.433027 21.5155 0 22.6055 0C23.6956 0 24.741 0.433027 25.5118 1.20382C26.2826 1.97461 26.7157 3.02003 26.7157 4.1101V4.29505C26.7183 4.95634 26.9142 5.60243 27.2794 6.15378C27.6445 6.70513 28.1629 7.13768 28.7707 7.39818C29.3905 7.67174 30.0781 7.75334 30.7448 7.63246C31.4114 7.51159 32.0266 7.19378 32.5109 6.72001L32.6342 6.59671C33.0159 6.21457 33.4692 5.91141 33.9682 5.70457C34.4671 5.49774 35.002 5.39127 35.5421 5.39127C36.0822 5.39127 36.6171 5.49774 37.116 5.70457C37.615 5.91141 38.0683 6.21457 38.45 6.59671C38.8321 6.97843 39.1353 7.43173 39.3421 7.93068C39.549 8.42964 39.6554 8.96447 39.6554 9.50461C39.6554 10.0447 39.549 10.5796 39.3421 11.0785C39.1353 11.5775 38.8321 12.0308 38.45 12.4125L38.3267 12.5358C37.8529 13.0201 37.5351 13.6353 37.4142 14.3019C37.2934 14.9686 37.375 15.6562 37.6485 16.276V16.4404C37.909 17.0482 38.3416 17.5666 38.8929 17.9317C39.4443 18.2969 40.0904 18.4928 40.7516 18.4954H41.101C42.1911 18.4954 43.2365 18.9285 44.0073 19.6993C44.7781 20.4701 45.2111 21.5155 45.2111 22.6055C45.2111 23.6956 44.7781 24.741 44.0073 25.5118C43.2365 26.2826 42.1911 26.7156 41.101 26.7156H40.916C40.2548 26.7183 39.6087 26.9142 39.0573 27.2794C38.506 27.6445 38.0734 28.1629 37.8129 28.7707Z" fill="#1F1B34"/>
<g id="Text">
<path id="Vector" d="M173.623 19.119C174.161 18.2148 174.872 17.5151 175.754 17.0199C176.658 16.5032 177.724 16.2449 178.951 16.2449V20.0555H178.015C176.572 20.0555 175.474 20.4215 174.721 21.1535C173.989 21.8855 173.623 23.1557 173.623 24.9642V34.3293H169.941V16.5355H173.623V19.119Z" fill="#1F1B34"/>
<path id="Vector_2" d="M166.319 24.9964C166.319 25.6638 166.276 26.2667 166.189 26.8049H152.594C152.701 28.2258 153.229 29.3669 154.176 30.228C155.124 31.0892 156.286 31.5198 157.664 31.5198C159.645 31.5198 161.044 30.6909 161.862 29.0332H165.834C165.296 30.6694 164.316 32.0149 162.896 33.0699C161.496 34.1033 159.752 34.62 157.664 34.62C155.963 34.62 154.435 34.2432 153.078 33.4897C151.743 32.7146 150.689 31.6382 149.913 30.2603C149.16 28.8609 148.783 27.2462 148.783 25.4163C148.783 23.5863 149.149 21.9824 149.881 20.6045C150.635 19.2051 151.679 18.1287 153.014 17.3751C154.37 16.6216 155.92 16.2449 157.664 16.2449C159.343 16.2449 160.839 16.6109 162.153 17.3429C163.466 18.0748 164.489 19.1082 165.221 20.443C165.953 21.7563 166.319 23.2741 166.319 24.9964ZM162.476 23.8339C162.454 22.4775 161.97 21.3903 161.022 20.5722C160.075 19.7541 158.902 19.3451 157.502 19.3451C156.232 19.3451 155.145 19.7541 154.241 20.5722C153.337 21.3688 152.798 22.456 152.626 23.8339H162.476Z" fill="#1F1B34"/>
<path id="Vector_3" d="M142.29 19.5389V29.3884C142.29 30.0558 142.441 30.5402 142.743 30.8416C143.065 31.1215 143.604 31.2615 144.357 31.2615H146.618V34.3294H143.711C142.054 34.3294 140.783 33.9418 139.901 33.1668C139.018 32.3917 138.577 31.1323 138.577 29.3884V19.5389H136.478V16.5356H138.577V12.1113H142.29V16.5356H146.618V19.5389H142.29Z" fill="#1F1B34"/>
<path id="Vector_4" d="M130.276 19.5389V29.3884C130.276 30.0558 130.426 30.5402 130.728 30.8416C131.051 31.1215 131.589 31.2615 132.343 31.2615H134.603V34.3294H131.697C130.039 34.3294 128.769 33.9418 127.886 33.1668C127.003 32.3917 126.562 31.1323 126.562 29.3884V19.5389H124.463V16.5356H126.562V12.1113H130.276V16.5356H134.603V19.5389H130.276Z" fill="#1F1B34"/>
<path id="Vector_5" d="M102.865 25.3517C102.865 23.5648 103.231 21.9824 103.963 20.6045C104.717 19.2267 105.729 18.161 106.999 17.4074C108.291 16.6324 109.711 16.2449 111.262 16.2449C112.661 16.2449 113.877 16.5248 114.911 17.0845C115.966 17.6227 116.805 18.3009 117.43 19.119V16.5355H121.143V34.3293H117.43V31.6812C116.805 32.5209 115.955 33.2206 114.878 33.7803C113.802 34.3401 112.575 34.62 111.197 34.62C109.668 34.62 108.269 34.2324 106.999 33.4574C105.729 32.6608 104.717 31.5628 103.963 30.1634C103.231 28.7425 102.865 27.1386 102.865 25.3517ZM117.43 25.4163C117.43 24.1891 117.171 23.1234 116.655 22.2192C116.159 21.315 115.503 20.626 114.685 20.1524C113.867 19.6788 112.984 19.4419 112.037 19.4419C111.089 19.4419 110.207 19.6788 109.389 20.1524C108.57 20.6045 107.903 21.2827 107.386 22.1869C106.891 23.0696 106.644 24.1245 106.644 25.3517C106.644 26.5788 106.891 27.6553 107.386 28.581C107.903 29.5068 108.57 30.2173 109.389 30.7124C110.228 31.1861 111.111 31.4229 112.037 31.4229C112.984 31.4229 113.867 31.1861 114.685 30.7124C115.503 30.2388 116.159 29.5499 116.655 28.6456C117.171 27.7199 117.43 26.6434 117.43 25.4163Z" fill="#1F1B34"/>
<path id="Vector_6" d="M99.2596 10.432V34.3293H95.5781V10.432H99.2596Z" fill="#1F1B34"/>
<path id="Vector_7" d="M77.3739 19.1513C77.9982 18.3332 78.8486 17.6443 79.9251 17.0845C81.0015 16.5248 82.2179 16.2449 83.5742 16.2449C85.1243 16.2449 86.5345 16.6324 87.8047 17.4074C89.0964 18.161 90.1083 19.2267 90.8403 20.6045C91.5723 21.9824 91.9383 23.5648 91.9383 25.3517C91.9383 27.1386 91.5723 28.7425 90.8403 30.1634C90.1083 31.5628 89.0964 32.6608 87.8047 33.4574C86.5345 34.2324 85.1243 34.62 83.5742 34.62C82.2179 34.62 81.0123 34.3508 79.9573 33.8126C78.9024 33.2529 78.0413 32.5639 77.3739 31.7458V42.7902H73.6924V16.5355H77.3739V19.1513ZM88.1922 25.3517C88.1922 24.1245 87.9339 23.0696 87.4172 22.1869C86.922 21.2827 86.2546 20.6045 85.415 20.1524C84.5969 19.6788 83.7142 19.4419 82.7669 19.4419C81.8411 19.4419 80.9585 19.6788 80.1188 20.1524C79.3007 20.626 78.6333 21.315 78.1166 22.2192C77.6214 23.1234 77.3739 24.1891 77.3739 25.4163C77.3739 26.6434 77.6214 27.7199 78.1166 28.6456C78.6333 29.5499 79.3007 30.2388 80.1188 30.7124C80.9585 31.1861 81.8411 31.4229 82.7669 31.4229C83.7142 31.4229 84.5969 31.1861 85.415 30.7124C86.2546 30.2173 86.922 29.5068 87.4172 28.581C87.9339 27.6553 88.1922 26.5788 88.1922 25.3517Z" fill="#1F1B34"/>
<path id="Vector_8" d="M62.8982 34.62C61.4988 34.62 60.2394 34.3724 59.1199 33.8772C58.0219 33.3605 57.15 32.6716 56.5041 31.8104C55.8582 30.9277 55.5138 29.9481 55.4707 28.8717H59.2814C59.3459 29.6252 59.7012 30.2603 60.347 30.777C61.0144 31.2722 61.8433 31.5198 62.8337 31.5198C63.8671 31.5198 64.6636 31.326 65.2234 30.9385C65.8047 30.5294 66.0953 30.0127 66.0953 29.3884C66.0953 28.721 65.7724 28.2258 65.1265 27.9029C64.5022 27.5799 63.5011 27.2247 62.1232 26.8372C60.7884 26.4712 59.7012 26.116 58.8615 25.7715C58.0219 25.427 57.2899 24.8996 56.6656 24.1891C56.0628 23.4786 55.7613 22.5421 55.7613 21.3796C55.7613 20.4323 56.0412 19.5711 56.601 18.7961C57.1607 17.9995 57.9573 17.3751 58.9907 16.923C60.0456 16.4709 61.2513 16.2449 62.6076 16.2449C64.6313 16.2449 66.2568 16.7616 67.4839 17.795C68.7326 18.8068 69.4 20.1955 69.4861 21.9608H65.8047C65.7401 21.1643 65.4171 20.5292 64.8359 20.0555C64.2546 19.5819 63.4688 19.3451 62.4784 19.3451C61.5096 19.3451 60.7669 19.5281 60.2502 19.8941C59.7335 20.26 59.4751 20.7445 59.4751 21.3473C59.4751 21.8209 59.6473 22.2192 59.9918 22.5421C60.3363 22.8651 60.7561 23.1234 61.2513 23.3172C61.7464 23.4894 62.4784 23.7155 63.4472 23.9953C64.739 24.3398 65.7939 24.695 66.612 25.061C67.4516 25.4055 68.1729 25.9222 68.7757 26.6111C69.3785 27.3001 69.6907 28.215 69.7122 29.3561C69.7122 30.368 69.4323 31.2722 68.8726 32.0688C68.3128 32.8653 67.5162 33.4897 66.4828 33.9418C65.471 34.3939 64.2761 34.62 62.8982 34.62Z" fill="#1F1B34"/>
</g>
</g>
</g>
</g>
</g>
</g>
</g>
</g>
</svg>
