<svg width="161" height="66" viewBox="0 0 161 66" fill="none" xmlns="http://www.w3.org/2000/svg">
<rect width="161" height="66" fill="#868686"/>
<g id="NumberCaller Home Page Redesign">
<rect width="1440" height="7062" transform="translate(-1168 -1150)" fill="#F6F6F7"/>
<g id="Frame 2147259524">
<g id="Frame 2147259513">
<g id="Frame 2147259512">
<g id="Frame 2147259506">
<g id="Frame 2147259511">
<mask id="path-1-inside-1_0_1" fill="white">
<path d="M-52 -26H196C203.542 -26 207.314 -26 209.657 -23.6569C212 -21.3137 212 -17.5425 212 -10V92H-52V-26Z"/>
</mask>
<path d="M-52 -26H196C203.542 -26 207.314 -26 209.657 -23.6569C212 -21.3137 212 -17.5425 212 -10V92H-52V-26Z" fill="white"/>
<path d="M-52 -27H204C208.971 -27 213 -22.9706 213 -18H211C211 -21.866 207.866 -25 204 -25H-52V-27ZM213 93H-52V91H211L213 93ZM211 91M-52 92V-26V92M204 -27C208.971 -27 213 -22.9706 213 -18V93L211 91V-18C211 -21.866 207.866 -25 204 -25V-27Z" fill="#CDCCD2" mask="url(#path-1-inside-1_0_1)"/>
<g id="Group 25">
<g id="link">
<path id="Icon" d="M24.6639 46.5865H19.1832C11.6159 46.5865 5.48145 40.452 5.48145 32.8848C5.48145 25.3175 11.6159 19.183 19.1832 19.183H24.6639M21.9236 32.8848L49.3271 32.8848M43.2375 46.5865H46.5868C54.1541 46.5865 60.2886 40.452 60.2886 32.8848C60.2886 25.3175 54.1541 19.183 46.5868 19.183H43.2375C42.0603 19.183 41.1061 20.1372 41.1061 21.3144V44.4551C41.1061 45.6323 42.0603 46.5865 43.2375 46.5865Z" stroke="#1F1B34" stroke-width="1.31287" stroke-linecap="round" stroke-linejoin="round"/>
</g>
<g id="Text">
<path id="Vector" d="M153.903 27.0262C155.255 27.0262 156.46 27.3069 157.521 27.8682C158.602 28.4295 159.444 29.2611 160.046 30.3629C160.649 31.4647 160.951 32.7952 160.951 34.3543V44.4889H157.427V34.8844C157.427 33.3461 157.042 32.1715 156.273 31.3607C155.504 30.5292 154.454 30.1134 153.124 30.1134C151.793 30.1134 150.733 30.5292 149.943 31.3607C149.174 32.1715 148.789 33.3461 148.789 34.8844V44.4889H145.234V27.3069H148.789V29.2714C149.371 28.5646 150.109 28.0137 151.003 27.6187C151.918 27.2237 152.885 27.0262 153.903 27.0262Z" fill="#1F1B34"/>
<path id="Vector_2" d="M138.821 25.0306C138.177 25.0306 137.636 24.8123 137.2 24.3757C136.763 23.9391 136.545 23.3986 136.545 22.7542C136.545 22.1097 136.763 21.5692 137.2 21.1326C137.636 20.6961 138.177 20.4778 138.821 20.4778C139.445 20.4778 139.975 20.6961 140.412 21.1326C140.848 21.5692 141.067 22.1097 141.067 22.7542C141.067 23.3986 140.848 23.9391 140.412 24.3757C139.975 24.8123 139.445 25.0306 138.821 25.0306ZM140.568 27.3069V44.489H137.013V27.3069H140.568Z" fill="#1F1B34"/>
<path id="Vector_3" d="M114.695 35.82C114.695 34.0945 115.049 32.5665 115.756 31.236C116.483 29.9055 117.46 28.8765 118.687 28.1488C119.934 27.4004 121.306 27.0262 122.803 27.0262C124.154 27.0262 125.329 27.2965 126.327 27.837C127.345 28.3567 128.156 29.0116 128.759 29.8016V27.3069H132.345V44.4889H128.759V41.9319C128.156 42.7427 127.335 43.4183 126.296 43.9588C125.256 44.4993 124.071 44.7696 122.741 44.7696C121.265 44.7696 119.913 44.3954 118.687 43.647C117.46 42.8778 116.483 41.8175 115.756 40.4663C115.049 39.0942 114.695 37.5454 114.695 35.82ZM128.759 35.8823C128.759 34.6974 128.51 33.6683 128.011 32.7952C127.532 31.922 126.898 31.2568 126.108 30.7994C125.318 30.3421 124.466 30.1134 123.551 30.1134C122.637 30.1134 121.784 30.3421 120.994 30.7994C120.204 31.236 119.56 31.8908 119.061 32.764C118.583 33.6163 118.344 34.635 118.344 35.82C118.344 37.0049 118.583 38.0444 119.061 38.9383C119.56 39.8322 120.204 40.5182 120.994 40.9964C121.805 41.4537 122.657 41.6824 123.551 41.6824C124.466 41.6824 125.318 41.4537 126.108 40.9964C126.898 40.539 127.532 39.8738 128.011 39.0007C128.51 38.1067 128.759 37.0673 128.759 35.8823Z" fill="#1F1B34"/>
<path id="Vector_4" d="M104.515 27.0262C105.825 27.0262 106.989 27.3069 108.008 27.8682C109.047 28.4295 109.858 29.261 110.44 30.3628C111.043 31.4646 111.344 32.7951 111.344 34.3543V44.4889H107.821V34.8844C107.821 33.346 107.436 32.1715 106.667 31.3607C105.898 30.5291 104.848 30.1134 103.517 30.1134C102.187 30.1134 101.127 30.5291 100.337 31.3607C99.5674 32.1715 99.1828 33.346 99.1828 34.8844V44.4889H95.6279V21.4132H99.1828V29.3026C99.7857 28.575 100.545 28.0137 101.459 27.6187C102.395 27.2237 103.413 27.0262 104.515 27.0262Z" fill="#1F1B34"/>
<path id="Vector_5" d="M70.3242 33.6059C70.3242 31.4854 70.8128 29.5832 71.7898 27.8993C72.7877 26.2154 74.1286 24.9057 75.8125 23.9702C77.5172 23.0139 79.3778 22.5358 81.3943 22.5358C83.7019 22.5358 85.7496 23.1075 87.5374 24.2509C89.3461 25.3735 90.6558 26.9742 91.4665 29.0531H87.1944C86.6331 27.9097 85.8535 27.0574 84.8557 26.4961C83.8578 25.9348 82.704 25.6541 81.3943 25.6541C79.9599 25.6541 78.6814 25.9763 77.5588 26.6208C76.4362 27.2652 75.5526 28.1903 74.9082 29.3961C74.2845 30.6019 73.9727 32.0051 73.9727 33.6059C73.9727 35.2066 74.2845 36.6099 74.9082 37.8156C75.5526 39.0214 76.4362 39.9569 77.5588 40.6221C78.6814 41.2666 79.9599 41.5888 81.3943 41.5888C82.704 41.5888 83.8578 41.3081 84.8557 40.7468C85.8535 40.1855 86.6331 39.3332 87.1944 38.1898H91.4665C90.6558 40.2687 89.3461 41.8694 87.5374 42.9921C85.7496 44.1147 83.7019 44.676 81.3943 44.676C79.357 44.676 77.4964 44.2082 75.8125 43.2727C74.1286 42.3164 72.7877 40.9963 71.7898 39.3124C70.8128 37.6285 70.3242 35.7263 70.3242 33.6059Z" fill="#1F1B34"/>
</g>
</g>
</g>
</g>
</g>
</g>
</g>
</g>
</svg>
