<svg width="171" height="39" viewBox="0 0 171 39" fill="none" xmlns="http://www.w3.org/2000/svg">
<rect width="171" height="39" fill="#868686"/>
<g id="NumberCaller Home Page Redesign">
<rect width="1440" height="7062" transform="translate(-635 -1164)" fill="#F6F6F7"/>
<g id="Frame 2147259524">
<g id="Frame 2147259513">
<g id="Frame 2147259512">
<g id="Frame 2147259506">
<g id="Frame 2147259503">
<mask id="path-1-inside-1_0_1" fill="white">
<path d="M-47 -40H217V78H-47V-40Z"/>
</mask>
<path d="M-47 -40H217V78H-47V-40Z" fill="white"/>
<path d="M217 -40H218V-41H217V-40ZM217 78V79H218V78H217ZM-47 -40V-39H217V-40V-41H-47V-40ZM217 -40H216V78H217H218V-40H217ZM217 78V77H-47V78V79H217V78Z" fill="#CDCCD2" mask="url(#path-1-inside-1_0_1)"/>
<g id="Group 23">
<g id="asterisk">
<path id="Icon" d="M22.6004 1.61377V17.7571M22.6004 33.9005V17.7571M34.0155 6.34205L11.1853 29.1722M22.6004 17.7571L6.45703 17.7571M34.0155 29.1722L11.1853 6.34205" stroke="#1F1B34" stroke-width="1.57544" stroke-linecap="round" stroke-linejoin="round"/>
</g>
<g id="Text">
<path id="Vector" d="M161.784 20.1843L170.241 29.3406H165.113L158.321 21.4495V29.3406H154.525V4.70178H158.321V19.0189L164.98 10.9947H170.241L161.784 20.1843Z" fill="#1F1B34"/>
<path id="Vector_2" d="M143.397 29.6402C141.954 29.6402 140.656 29.3849 139.502 28.8744C138.37 28.3417 137.471 27.6314 136.805 26.7435C136.139 25.8334 135.784 24.8234 135.739 23.7136H139.668C139.735 24.4905 140.101 25.1453 140.767 25.678C141.455 26.1886 142.31 26.4438 143.331 26.4438C144.396 26.4438 145.217 26.244 145.795 25.8445C146.394 25.4228 146.694 24.89 146.694 24.2463C146.694 23.5582 146.361 23.0477 145.695 22.7147C145.051 22.3817 144.019 22.0155 142.598 21.6159C141.222 21.2386 140.101 20.8723 139.235 20.5172C138.37 20.162 137.615 19.6182 136.971 18.8857C136.35 18.1532 136.039 17.1876 136.039 15.989C136.039 15.0123 136.327 14.1244 136.905 13.3253C137.482 12.504 138.303 11.8603 139.368 11.3942C140.456 10.928 141.699 10.6949 143.098 10.6949C145.184 10.6949 146.86 11.2277 148.125 12.2931C149.413 13.3364 150.101 14.7681 150.19 16.5883H146.394C146.327 15.767 145.994 15.1122 145.395 14.6238C144.796 14.1355 143.985 13.8913 142.964 13.8913C141.966 13.8913 141.2 14.08 140.667 14.4574C140.134 14.8347 139.868 15.3341 139.868 15.9557C139.868 16.444 140.046 16.8547 140.401 17.1876C140.756 17.5206 141.189 17.7869 141.699 17.9867C142.21 18.1643 142.964 18.3974 143.963 18.6859C145.295 19.0411 146.383 19.4073 147.226 19.7847C148.092 20.1398 148.836 20.6726 149.457 21.3829C150.079 22.0932 150.4 23.0366 150.423 24.213C150.423 25.2563 150.134 26.1886 149.557 27.0098C148.98 27.8311 148.159 28.4749 147.093 28.941C146.05 29.4071 144.818 29.6402 143.397 29.6402Z" fill="#1F1B34"/>
<path id="Vector_3" d="M129.892 8.56406C129.203 8.56406 128.626 8.33099 128.16 7.86484C127.694 7.39871 127.461 6.82158 127.461 6.13347C127.461 5.44536 127.694 4.86823 128.16 4.40209C128.626 3.93595 129.203 3.70288 129.892 3.70288C130.557 3.70288 131.123 3.93595 131.59 4.40209C132.056 4.86823 132.289 5.44536 132.289 6.13347C132.289 6.82158 132.056 7.39871 131.59 7.86484C131.123 8.33099 130.557 8.56406 129.892 8.56406ZM131.756 10.9946V29.3406H127.96V10.9946H131.756Z" fill="#1F1B34"/>
<path id="Vector_4" d="M118.977 13.6583C119.532 12.726 120.265 12.0046 121.175 11.494C122.107 10.9613 123.206 10.6949 124.471 10.6949V14.6238H123.506C122.018 14.6238 120.886 15.0012 120.109 15.7559C119.355 16.5106 118.977 17.8202 118.977 19.6848V29.3405H115.182V10.9946H118.977V13.6583Z" fill="#1F1B34"/>
<path id="Vector_5" d="M111.446 19.7181C111.446 20.4062 111.401 21.0277 111.313 21.5826H97.2951C97.4061 23.0477 97.9499 24.2241 98.9266 25.112C99.9033 25.9999 101.102 26.4438 102.523 26.4438C104.565 26.4438 106.007 25.5892 106.851 23.88H110.946C110.391 25.567 109.381 26.9544 107.916 28.042C106.474 29.1075 104.676 29.6402 102.523 29.6402C100.769 29.6402 99.193 29.2518 97.7945 28.4749C96.4183 27.6758 95.3307 26.5659 94.5316 25.1453C93.7547 23.7025 93.3662 22.0377 93.3662 20.1509C93.3662 18.2642 93.7436 16.6105 94.4983 15.1899C95.2752 13.7471 96.3517 12.6372 97.728 11.8603C99.1264 11.0834 100.725 10.6949 102.523 10.6949C104.254 10.6949 105.797 11.0723 107.151 11.827C108.505 12.5817 109.559 13.6472 110.314 15.0234C111.068 16.3774 111.446 17.9423 111.446 19.7181ZM107.484 18.5194C107.461 17.121 106.962 16.0001 105.985 15.1566C105.009 14.3131 103.799 13.8913 102.356 13.8913C101.046 13.8913 99.9255 14.3131 98.9932 15.1566C98.0609 15.9779 97.506 17.0988 97.3284 18.5194H107.484Z" fill="#1F1B34"/>
<path id="Vector_6" d="M86.671 14.0912V24.2464C86.671 24.9345 86.8263 25.434 87.1371 25.7447C87.4701 26.0333 88.025 26.1776 88.8019 26.1776H91.1326V29.3407H88.136C86.4268 29.3407 85.1172 28.9411 84.2071 28.142C83.297 27.3429 82.842 26.0444 82.842 24.2464V14.0912H80.6777V10.9947H82.842V6.43323H86.671V10.9947H91.1326V14.0912H86.671Z" fill="#1F1B34"/>
<path id="Vector_7" d="M71.117 29.6402C69.6742 29.6402 68.3757 29.3849 67.2214 28.8744C66.0893 28.3417 65.1904 27.6314 64.5244 26.7435C63.8585 25.8334 63.5034 24.8234 63.459 23.7136H67.3879C67.4545 24.4905 67.8207 25.1453 68.4866 25.678C69.1747 26.1886 70.0293 26.4438 71.0504 26.4438C72.1159 26.4438 72.9372 26.244 73.5143 25.8445C74.1136 25.4228 74.4133 24.89 74.4133 24.2463C74.4133 23.5582 74.0803 23.0477 73.4144 22.7147C72.7707 22.3817 71.7385 22.0155 70.3179 21.6159C68.9417 21.2386 67.8207 20.8723 66.955 20.5172C66.0893 20.162 65.3346 19.6182 64.6909 18.8857C64.0694 18.1532 63.7586 17.1876 63.7586 15.989C63.7586 15.0123 64.0472 14.1244 64.6243 13.3253C65.2015 12.504 66.0228 11.8603 67.0882 11.3942C68.1759 10.928 69.4189 10.6949 70.8173 10.6949C72.9039 10.6949 74.5798 11.2277 75.845 12.2931C77.1324 13.3364 77.8205 14.7681 77.9093 16.5883H74.1136C74.047 15.767 73.7141 15.1122 73.1147 14.6238C72.5154 14.1355 71.7052 13.8913 70.6842 13.8913C69.6853 13.8913 68.9195 14.08 68.3868 14.4574C67.854 14.8347 67.5877 15.3341 67.5877 15.9557C67.5877 16.444 67.7652 16.8547 68.1204 17.1876C68.4755 17.5206 68.9084 17.7869 69.4189 17.9867C69.9295 18.1643 70.6842 18.3974 71.683 18.6859C73.0149 19.0411 74.1025 19.4073 74.946 19.7847C75.8117 20.1398 76.5553 20.6726 77.1768 21.3829C77.7983 22.0932 78.1202 23.0366 78.1424 24.213C78.1424 25.2563 77.8538 26.1886 77.2767 27.0098C76.6996 27.8311 75.8783 28.4749 74.8128 28.941C73.7696 29.4071 72.5376 29.6402 71.117 29.6402Z" fill="#1F1B34"/>
<path id="Vector_8" d="M55.193 24.6125H45.5039L43.8391 29.3404H39.877L48.1676 6.16663H52.5626L60.8533 29.3404H56.8578L55.193 24.6125ZM54.1275 21.5159L50.3651 10.7614L46.5694 21.5159H54.1275Z" fill="#1F1B34"/>
</g>
</g>
</g>
</g>
</g>
</g>
</g>
</g>
</svg>
