<svg width="163" height="32" viewBox="0 0 163 32" fill="none" xmlns="http://www.w3.org/2000/svg">
<rect width="163" height="32" fill="#868686"/>
<g id="NumberCaller Home Page Redesign">
<rect width="1440" height="7062" transform="translate(-111 -1285)" fill="#F6F6F7"/>
<g id="Frame 2147259524">
<g id="Frame 2147259513">
<g id="Frame 2147259512">
<g id="Frame 2147259507">
<g id="Frame 2147259510">
<mask id="path-1-inside-1_0_1" fill="white">
<path d="M-51 -43H213V75H-35C-42.5425 75 -46.3137 75 -48.6569 72.6569C-51 70.3137 -51 66.5425 -51 59V-43Z"/>
</mask>
<path d="M-51 -43H213V75H-35C-42.5425 75 -46.3137 75 -48.6569 72.6569C-51 70.3137 -51 66.5425 -51 59V-43Z" fill="white"/>
<path d="M-51 -43H213H-51M214 76H-43C-47.9706 76 -52 71.9706 -52 67H-50C-50 70.866 -46.866 74 -43 74H212L214 76ZM-43 76C-47.9706 76 -52 71.9706 -52 67V-43H-50V67C-50 70.866 -46.866 74 -43 74V76ZM214 -43V76L212 74V-43H214Z" fill="#CDCCD2" mask="url(#path-1-inside-1_0_1)"/>
<g id="Group 26">
<g id="hearts">
<path id="Icon" d="M82.9263 12.8795C83.4115 12.0174 83.8161 11.2394 84.0656 10.6473C85.2773 7.77219 84.0792 4.465 81.1504 3.11596C78.2216 1.76691 75.2807 3.16575 73.99 5.86661C71.5217 4.17295 68.2292 4.42169 66.4135 7.0647C64.5978 9.70771 65.1676 13.1606 67.6545 15.0447C68.7832 15.8998 71.0154 17.16 73.117 18.2814M83.9016 15.247C83.3539 12.3041 80.8499 10.1518 77.6971 10.7368C74.5443 11.3218 72.5057 14.1663 72.9319 17.257C73.2744 19.7403 75.1646 25.5665 75.8944 27.7611C75.994 28.0606 76.0438 28.2103 76.1424 28.3147C76.2283 28.4057 76.3425 28.4716 76.4643 28.5005C76.604 28.5337 76.7586 28.502 77.0677 28.4385C79.3332 27.9733 85.324 26.6971 87.6457 25.7521C90.5355 24.5758 92.0269 21.3901 90.9099 18.3652C89.7928 15.3403 86.7241 14.2499 83.9016 15.247Z" stroke="#1F1B34" stroke-width="0.525148" stroke-linecap="round" stroke-linejoin="round"/>
</g>
<g id="New">
<path id="Vector" d="M61.3628 9.21558L56.3129 25.4875H52.7691L49.4911 13.4681L46.2131 25.4875H42.6693L37.5898 9.21558H41.0155L44.4116 22.2981L47.8668 9.21558H51.3811L54.6886 22.239L58.0552 9.21558H61.3628Z" fill="#1F1B34"/>
<path id="Vector_2" d="M36.1968 16.9529C36.1968 17.5632 36.1574 18.1145 36.0787 18.6067H23.6459C23.7443 19.9061 24.2266 20.9495 25.0929 21.737C25.9592 22.5245 27.0223 22.9183 28.2823 22.9183C30.0936 22.9183 31.3733 22.1603 32.1214 20.6443H35.7538C35.2616 22.1406 34.3658 23.3711 33.0664 24.3358C31.7867 25.2808 30.192 25.7533 28.2823 25.7533C26.727 25.7533 25.3292 25.4088 24.0888 24.7197C22.8682 24.0109 21.9035 23.0266 21.1947 21.7665C20.5057 20.4868 20.1611 19.0103 20.1611 17.3368C20.1611 15.6633 20.4958 14.1966 21.1652 12.9366C21.8543 11.6569 22.8091 10.6725 24.0298 9.98343C25.2701 9.29436 26.6876 8.94983 28.2823 8.94983C29.818 8.94983 31.1863 9.28452 32.3872 9.9539C33.5882 10.6233 34.5233 11.5683 35.1927 12.7889C35.8621 13.9899 36.1968 15.3779 36.1968 16.9529ZM32.6825 15.8898C32.6628 14.6494 32.2199 13.6552 31.3536 12.9071C30.4873 12.1589 29.4144 11.7849 28.1347 11.7849C26.9731 11.7849 25.9789 12.1589 25.152 12.9071C24.3251 13.6355 23.8329 14.6297 23.6754 15.8898H32.6825Z" fill="#1F1B34"/>
<path id="Vector_3" d="M16.8625 25.4873H13.4959L3.3666 10.1604V25.4873H0V4.93335H3.3666L13.4959 20.2307V4.93335H16.8625V25.4873Z" fill="#1F1B34"/>
</g>
<g id="Duet">
<path id="Vector_4" d="M158.382 11.9621V20.9692C158.382 21.5795 158.52 22.0225 158.796 22.2981C159.091 22.5541 159.583 22.682 160.272 22.682H162.339V25.4875H159.681C158.166 25.4875 157.004 25.1332 156.197 24.4244C155.39 23.7156 154.986 22.5639 154.986 20.9692V11.9621H153.066V9.21563H154.986V5.1698H158.382V9.21563H162.339V11.9621H158.382Z" fill="#1F1B34"/>
<path id="Vector_5" d="M151.14 16.9529C151.14 17.5632 151.101 18.1145 151.022 18.6067H138.589C138.688 19.9061 139.17 20.9495 140.036 21.737C140.903 22.5245 141.966 22.9183 143.226 22.9183C145.037 22.9183 146.317 22.1603 147.065 20.6443H150.697C150.205 22.1406 149.309 23.3711 148.01 24.3358C146.73 25.2808 145.135 25.7533 143.226 25.7533C141.67 25.7533 140.273 25.4088 139.032 24.7197C137.812 24.0109 136.847 23.0266 136.138 21.7665C135.449 20.4868 135.104 19.0103 135.104 17.3368C135.104 15.6633 135.439 14.1966 136.109 12.9366C136.798 11.6569 137.752 10.6725 138.973 9.98343C140.213 9.29436 141.631 8.94983 143.226 8.94983C144.761 8.94983 146.13 9.28452 147.331 9.9539C148.532 10.6233 149.467 11.5683 150.136 12.7889C150.805 13.9899 151.14 15.3779 151.14 16.9529ZM147.626 15.8898C147.606 14.6494 147.163 13.6552 146.297 12.9071C145.431 12.1589 144.358 11.7849 143.078 11.7849C141.916 11.7849 140.922 12.1589 140.095 12.9071C139.268 13.6355 138.776 14.6297 138.619 15.8898H147.626Z" fill="#1F1B34"/>
<path id="Vector_6" d="M131.787 9.21558V25.4875H128.421V23.5679C127.889 24.2373 127.19 24.7689 126.324 25.1626C125.477 25.5367 124.572 25.7237 123.607 25.7237C122.327 25.7237 121.176 25.458 120.152 24.9264C119.148 24.3948 118.35 23.6073 117.76 22.5639C117.189 21.5204 116.903 20.2604 116.903 18.7838V9.21558H120.24V18.2818C120.24 19.7387 120.605 20.8609 121.333 21.6484C122.062 22.4162 123.056 22.8001 124.316 22.8001C125.576 22.8001 126.57 22.4162 127.298 21.6484C128.047 20.8609 128.421 19.7387 128.421 18.2818V9.21558H131.787Z" fill="#1F1B34"/>
<path id="Vector_7" d="M102.815 4.96313C105 4.96313 106.91 5.38642 108.544 6.23299C110.198 7.05988 111.468 8.26083 112.354 9.83585C113.259 11.3912 113.712 13.2123 113.712 15.2992C113.712 17.3861 113.259 19.1974 112.354 20.733C111.468 22.2687 110.198 23.4499 108.544 24.2768C106.91 25.084 105 25.4876 102.815 25.4876H96.1113V4.96313H102.815ZM102.815 22.7412C105.217 22.7412 107.058 22.0915 108.337 20.7921C109.617 19.4927 110.257 17.6617 110.257 15.2992C110.257 12.917 109.617 11.0565 108.337 9.71772C107.058 8.37896 105.217 7.70957 102.815 7.70957H99.4779V22.7412H102.815Z" fill="#1F1B34"/>
</g>
</g>
</g>
</g>
</g>
</g>
</g>
</g>
</svg>
