<svg width="141" height="28" viewBox="0 0 141 28" fill="none" xmlns="http://www.w3.org/2000/svg">
<rect width="141" height="28" fill="#868686"/>
<g id="NumberCaller Home Page Redesign">
<rect width="1440" height="7062" transform="translate(-1178 -1287)" fill="#F6F6F7"/>
<g id="Frame 2147259524">
<g id="Frame 2147259513">
<g id="Frame 2147259512">
<g id="Frame 2147259507">
<g id="Frame 2147259511">
<mask id="path-1-inside-1_0_1" fill="white">
<path d="M-62 -45H202V57C202 64.5425 202 68.3137 199.657 70.6569C197.314 73 193.542 73 186 73H-62V-45Z"/>
</mask>
<path d="M-62 -45H202V57C202 64.5425 202 68.3137 199.657 70.6569C197.314 73 193.542 73 186 73H-62V-45Z" fill="white"/>
<path d="M-62 -45H202H-62M203 65C203 69.9706 198.971 74 194 74H-62V72H194C197.866 72 201 68.866 201 65H203ZM201 65M-62 73V-45V73M203 -45V65C203 69.9706 198.971 74 194 74V72C197.866 72 201 68.866 201 65V-45H203Z" fill="#CDCCD2" mask="url(#path-1-inside-1_0_1)"/>
<g id="Group 30">
<path id="Vector (Stroke)" fill-rule="evenodd" clip-rule="evenodd" d="M6.38401 7.7277C7.38428 3.30457 11.3637 0 16.1222 0C20.8806 0 24.8601 3.30457 25.8604 7.7277C29.4849 8.33824 32.2444 11.4688 32.2444 15.2399C32.2444 17.6708 31.7912 20.1208 29.6005 21.5762C29.2482 21.8103 28.7713 21.7166 28.5355 21.3668C28.2996 21.0171 28.3941 20.5438 28.7464 20.3098C30.2592 19.3047 30.7089 17.5644 30.7089 15.2399C30.7089 12.0656 28.2639 9.4572 25.1416 9.17019C24.7938 9.13822 24.5115 8.87719 24.4549 8.53506C23.7962 4.5581 20.3154 1.52399 16.1222 1.52399C11.9289 1.52399 8.44821 4.5581 7.7895 8.53506C7.73283 8.87719 7.45059 9.13822 7.10275 9.17019C3.98049 9.4572 1.53545 12.0656 1.53545 15.2399C1.53545 17.3527 2.61776 19.2149 4.26567 20.3098C4.61802 20.5438 4.71245 21.0171 4.4766 21.3668C4.24074 21.7166 3.76391 21.8103 3.41156 21.5762C1.35602 20.2105 0 17.8825 0 15.2399C0 11.4688 2.75946 8.33823 6.38401 7.7277ZM14.8171 13.7159C15.1464 13.7159 15.4391 13.9244 15.5445 14.2342L18.9628 24.2869L20.3082 20.3302C20.4135 20.0204 20.7062 19.8118 21.0356 19.8118H23.7994C24.2234 19.8118 24.5671 20.153 24.5671 20.5738C24.5671 20.9947 24.2234 21.3358 23.7994 21.3358H21.5868L19.6902 26.9134C19.5848 27.2232 19.2922 27.4318 18.9628 27.4318C18.6334 27.4318 18.3407 27.2232 18.2353 26.9134L14.8171 16.8608L13.4716 20.8175C13.3663 21.1273 13.0736 21.3358 12.7442 21.3358H9.9804C9.5564 21.3358 9.21268 20.9947 9.21268 20.5738C9.21268 20.153 9.5564 19.8118 9.9804 19.8118H12.193L14.0896 14.2342C14.195 13.9244 14.4877 13.7159 14.8171 13.7159Z" fill="#1F1B34"/>
<g id="Text">
<path id="Vector" d="M135.154 8.50128C136.266 8.50128 137.254 8.73951 138.119 9.21595C139.001 9.6924 139.689 10.3982 140.183 11.3335C140.695 12.2687 140.951 13.3981 140.951 14.7216V23.3241H137.96V15.1715C137.96 13.8657 137.633 12.8687 136.98 12.1805C136.328 11.4747 135.436 11.1217 134.307 11.1217C133.178 11.1217 132.278 11.4747 131.607 12.1805C130.954 12.8687 130.628 13.8657 130.628 15.1715V23.3241H127.61V3.73682H130.628V10.4335C131.14 9.81592 131.784 9.33948 132.56 9.0042C133.354 8.66892 134.219 8.50128 135.154 8.50128Z" fill="#1F1B34"/>
<path id="Vector_2" d="M121.283 11.2012V19.2743C121.283 19.8214 121.407 20.2184 121.654 20.4655C121.918 20.6948 122.359 20.8096 122.977 20.8096H124.83V23.3241H122.448C121.089 23.3241 120.048 23.0065 119.324 22.3712C118.601 21.736 118.239 20.7037 118.239 19.2743V11.2012H116.519V8.73957H118.239V5.11328H121.283V8.73957H124.83V11.2012H121.283Z" fill="#1F1B34"/>
<path id="Vector_3" d="M113.802 3.73682V23.3241H110.784V3.73682H113.802Z" fill="#1F1B34"/>
<path id="Vector_4" d="M91.8379 15.9657C91.8379 14.501 92.1379 13.204 92.7378 12.0747C93.3555 10.9453 94.1848 10.0719 95.226 9.45423C96.2847 8.81897 97.4494 8.50134 98.7199 8.50134C99.8669 8.50134 100.864 8.73074 101.711 9.18954C102.576 9.6307 103.264 10.1866 103.776 10.8571V8.73957H106.819V23.3241H103.776V21.1536C103.264 21.8418 102.567 22.4153 101.684 22.8741C100.802 23.3329 99.7963 23.5623 98.667 23.5623C97.4141 23.5623 96.2671 23.2447 95.226 22.6095C94.1848 21.9565 93.3555 21.0566 92.7378 19.9096C92.1379 18.7449 91.8379 17.4303 91.8379 15.9657ZM103.776 16.0186C103.776 15.0128 103.564 14.1393 103.14 13.3982C102.734 12.657 102.196 12.0923 101.526 11.7041C100.855 11.3159 100.132 11.1218 99.3552 11.1218C98.5787 11.1218 97.8552 11.3159 97.1847 11.7041C96.5141 12.0747 95.9671 12.6305 95.5436 13.3717C95.1377 14.0952 94.9348 14.9598 94.9348 15.9657C94.9348 16.9715 95.1377 17.8538 95.5436 18.6126C95.9671 19.3714 96.5141 19.9537 97.1847 20.3596C97.8729 20.7478 98.5964 20.9419 99.3552 20.9419C100.132 20.9419 100.855 20.7478 101.526 20.3596C102.196 19.9714 102.734 19.4067 103.14 18.6655C103.564 17.9068 103.776 17.0244 103.776 16.0186Z" fill="#1F1B34"/>
<path id="Vector_5" d="M89.8748 15.6745C89.8748 16.2215 89.8395 16.7156 89.7689 17.1568H78.6253C78.7136 18.3214 79.1459 19.2567 79.9223 19.9625C80.6987 20.6684 81.6516 21.0213 82.781 21.0213C84.4044 21.0213 85.5514 20.3419 86.222 18.9832H89.4777C89.0366 20.3243 88.2337 21.4272 87.069 22.2918C85.922 23.1388 84.4927 23.5623 82.781 23.5623C81.387 23.5623 80.1341 23.2535 79.0224 22.6359C77.9283 22.0007 77.0636 21.1184 76.4284 19.989C75.8108 18.842 75.502 17.5185 75.502 16.0186C75.502 14.5187 75.8019 13.204 76.4019 12.0747C77.0195 10.9277 77.8754 10.0454 78.9694 9.42777C80.0811 8.81015 81.3517 8.50134 82.781 8.50134C84.1574 8.50134 85.3838 8.80133 86.4602 9.4013C87.5366 10.0013 88.3748 10.8483 88.9748 11.9423C89.5748 13.0188 89.8748 14.2628 89.8748 15.6745ZM86.7249 14.7216C86.7073 13.6099 86.3102 12.7188 85.5338 12.0482C84.7574 11.3777 83.7957 11.0424 82.6487 11.0424C81.6075 11.0424 80.7164 11.3777 79.9753 12.0482C79.2341 12.7011 78.793 13.5923 78.6518 14.7216H86.7249Z" fill="#1F1B34"/>
<path id="Vector_6" d="M66.8631 8.50128C67.9748 8.50128 68.963 8.73951 69.8276 9.21595C70.7099 9.6924 71.3981 10.3982 71.8922 11.3335C72.404 12.2687 72.6598 13.3981 72.6598 14.7216V23.3241H69.6688V15.1715C69.6688 13.8657 69.3424 12.8687 68.6895 12.1805C68.0365 11.4747 67.1454 11.1217 66.0161 11.1217C64.8867 11.1217 63.9867 11.4747 63.3162 12.1805C62.6633 12.8687 62.3368 13.8657 62.3368 15.1715V23.3241H59.3193V3.73682H62.3368V10.4335C62.8486 9.81592 63.4927 9.33948 64.2691 9.0042C65.0632 8.66892 65.9278 8.50128 66.8631 8.50128Z" fill="#1F1B34"/>
<path id="Vector_7" d="M46.9522 23.5095C45.2406 23.5095 43.6612 23.1124 42.2143 22.3183C40.7849 21.5066 39.6467 20.3861 38.7997 18.9567C37.9703 17.5098 37.5557 15.8863 37.5557 14.0864C37.5557 12.2865 37.9703 10.6719 38.7997 9.24253C39.6467 7.81319 40.7849 6.70148 42.2143 5.9074C43.6612 5.09568 45.2406 4.68982 46.9522 4.68982C48.6816 4.68982 50.2609 5.09568 51.6902 5.9074C53.1372 6.70148 54.2754 7.81319 55.1048 9.24253C55.9342 10.6719 56.3488 12.2865 56.3488 14.0864C56.3488 15.8863 55.9342 17.5098 55.1048 18.9567C54.2754 20.3861 53.1372 21.5066 51.6902 22.3183C50.2609 23.1124 48.6816 23.5095 46.9522 23.5095ZM46.9522 20.889C48.1698 20.889 49.2551 20.6155 50.208 20.0685C51.1609 19.5038 51.902 18.7097 52.4314 17.6862C52.9784 16.6451 53.2519 15.4452 53.2519 14.0864C53.2519 12.7276 52.9784 11.5365 52.4314 10.5131C51.902 9.48958 51.1609 8.70432 50.208 8.15729C49.2551 7.61026 48.1698 7.33675 46.9522 7.33675C45.7347 7.33675 44.6494 7.61026 43.6965 8.15729C42.7436 8.70432 41.9937 9.48958 41.4466 10.5131C40.9173 11.5365 40.6526 12.7276 40.6526 14.0864C40.6526 15.4452 40.9173 16.6451 41.4466 17.6862C41.9937 18.7097 42.7436 19.5038 43.6965 20.0685C44.6494 20.6155 45.7347 20.889 46.9522 20.889Z" fill="#1F1B34"/>
</g>
</g>
</g>
</g>
</g>
</g>
</g>
</g>
</svg>
